<?xml version="1.0" encoding="utf-8"?>
<!-- Generator: Adobe Illustrator 15.0.0, SVG Export Plug-In  -->
<!DOCTYPE svg PUBLIC "-//W3C//DTD SVG 1.1//EN" "http://www.w3.org/Graphics/SVG/1.1/DTD/svg11.dtd" [
	<!ENTITY ns_flows "http://ns.adobe.com/Flows/1.0/">
]>
<svg version="1.1"
	 xmlns="http://www.w3.org/2000/svg" xmlns:xlink="http://www.w3.org/1999/xlink" xmlns:a="http://ns.adobe.com/AdobeSVGViewerExtensions/3.0/"
	 x="0px" y="0px" width="595px" height="595px" viewBox="0 0 595 595" enable-background="new 0 0 595 595" xml:space="preserve">
<defs>
</defs>
<g>
	<path fill="#348DA3" d="M297.64,10c38.836,0,76.505,7.604,111.96,22.6c34.251,14.487,65.014,35.228,91.433,61.648
		c26.42,26.419,47.161,57.182,61.647,91.433c14.997,35.456,22.601,73.124,22.601,111.96s-7.604,76.505-22.601,111.96
		c-14.486,34.251-35.228,65.014-61.647,91.433c-26.419,26.42-57.182,47.161-91.433,61.648c-35.455,14.996-73.124,22.6-111.96,22.6
		c-38.835,0-76.504-7.604-111.959-22.6c-34.251-14.487-65.014-35.229-91.433-61.648c-26.419-26.419-47.161-57.182-61.647-91.433
		C17.604,374.146,10,336.477,10,297.641s7.604-76.504,22.6-111.96c14.487-34.251,35.228-65.013,61.647-91.433
		c26.419-26.42,57.182-47.161,91.433-61.648C221.136,17.604,258.804,10,297.64,10 M297.64,0C133.258,0,0,133.258,0,297.641
		s133.258,297.641,297.64,297.641c164.383,0,297.641-133.258,297.641-297.641S462.022,0,297.64,0L297.64,0z"/>
</g>
<path fill="#F79520" d="M184.626,267.359c0,25.514,8.247,49.638,23.84,69.764c0.081,0.088,0.159,0.189,0.248,0.284
	c32.538,45.171,24.45,66.651,24.45,66.695c-1.742,3.717-0.139,8.131,3.578,9.888c1.018,0.472,2.084,0.696,3.145,0.696
	c2.794,0,5.474-1.583,6.736-4.283c1.344-2.86,11.979-29.459-26.244-82.223c-0.165-0.232-0.34-0.457-0.529-0.67
	c-13.314-17.392-20.355-38.177-20.355-60.159c0-54.626,44.45-99.066,99.065-99.066c54.624,0,99.065,44.439,99.065,99.066
	c0,22.041-7.07,42.909-20.595,60.495c-38.237,52.808-27.179,79.71-25.793,82.615c1.742,3.63,6.033,5.125,9.707,3.484
	c3.665-1.646,5.334-6.019,3.78-9.734c-0.088-0.218-8.609-22.137,24.218-67.473c15.406-20.041,23.552-44.03,23.552-69.38
	c0-62.827-51.107-113.934-113.935-113.934C235.734,153.426,184.626,204.541,184.626,267.359z"/>
<path fill="#F79520" d="M366.918,445.306v-6.316c0-10.077-8.204-18.266-18.266-18.266H248.468c-10.068,0-18.266,8.188-18.266,18.266
	v6.316c0,10.062,8.197,18.264,18.266,18.264h100.191C358.729,463.569,366.918,455.38,366.918,445.306z M245.07,445.306v-6.316
	c0-1.874,1.525-3.397,3.397-3.397h100.191c1.874,0,3.39,1.523,3.39,3.397v6.316c0,1.871-1.516,3.396-3.39,3.396H248.468
	C246.596,448.702,245.07,447.177,245.07,445.306z"/>
<path fill="#F79520" d="M258.443,472.866c-4.11,0-7.433,3.338-7.433,7.435v19.636c0,2.912,1.698,5.556,4.347,6.76l40.067,18.278
	c0.973,0.45,2.024,0.676,3.077,0.676c1.09,0,2.179-0.238,3.181-0.718l40.175-18.948c2.6-1.233,4.254-3.847,4.254-6.723v-18.947
	c0-4.11-3.325-7.433-7.433-7.433c-4.11,0-7.435,3.322-7.435,7.433v14.243l-32.784,15.478l-32.583-14.867v-14.854
	C265.876,476.19,262.552,472.866,258.443,472.866z"/>
<path fill="#F79520" d="M472.395,401.693c2.442-3.306,1.734-7.957-1.568-10.396l-50.424-37.186
	c-3.31-2.439-7.958-1.741-10.396,1.568c-2.438,3.303-1.728,7.957,1.569,10.396l50.434,37.185c1.326,0.979,2.881,1.45,4.405,1.45
	C468.692,404.711,470.943,403.666,472.395,401.693z"/>
<path fill="#F79520" d="M176.912,193.07c1.329,0.983,2.875,1.452,4.407,1.452c2.287,0,4.522-1.05,5.989-3.027
	c2.439-3.299,1.736-7.953-1.569-10.392l-51.571-38.017c-3.296-2.446-7.95-1.734-10.39,1.569c-2.432,3.306-1.734,7.96,1.569,10.399
	L176.912,193.07z"/>
<path fill="#F79520" d="M179.249,351.557l-53.896,39.74c-3.296,2.439-4.008,7.091-1.568,10.396c1.459,1.973,3.709,3.018,5.997,3.018
	c1.523,0,3.079-0.464,4.399-1.444l53.895-39.746c3.312-2.439,4.009-7.085,1.576-10.389
	C187.199,349.829,182.552,349.125,179.249,351.557z"/>
<path fill="#F79520" d="M413.781,178.649c-3.31,2.439-4.008,7.093-1.566,10.392c1.45,1.978,3.699,3.027,5.98,3.027
	c1.539,0,3.077-0.476,4.412-1.449l48.236-35.565c3.311-2.439,4.007-7.093,1.565-10.392c-2.431-3.3-7.078-4.015-10.388-1.568
	L413.781,178.649z"/>
<path fill="#F79520" d="M501.624,265.748h-56.857c-4.117,0-7.437,3.328-7.437,7.432c0,4.104,3.319,7.436,7.437,7.436h56.857
	c4.109,0,7.433-3.332,7.433-7.436C509.057,269.076,505.733,265.748,501.624,265.748z"/>
<path fill="#F79520" d="M159.766,273.18c0-4.104-3.325-7.432-7.436-7.432H93.659c-4.11,0-7.436,3.328-7.436,7.432
	c0,4.104,3.325,7.436,7.436,7.436h58.671C156.44,280.615,159.766,277.283,159.766,273.18z"/>
</svg>
