<?xml version="1.0" encoding="utf-8"?>
<!-- Generator: Adobe Illustrator 15.0.0, SVG Export Plug-In  -->
<!DOCTYPE svg PUBLIC "-//W3C//DTD SVG 1.1//EN" "http://www.w3.org/Graphics/SVG/1.1/DTD/svg11.dtd" [
	<!ENTITY ns_flows "http://ns.adobe.com/Flows/1.0/">
]>
<svg version="1.1"
	 xmlns="http://www.w3.org/2000/svg" xmlns:xlink="http://www.w3.org/1999/xlink" xmlns:a="http://ns.adobe.com/AdobeSVGViewerExtensions/3.0/"
	 x="0px" y="0px" width="595px" height="595px" viewBox="0 -0.311 595 595" enable-background="new 0 -0.311 595 595"
	 xml:space="preserve">
<defs>
</defs>
<g>
	<path fill="#348DA3" d="M297.64,10c38.836,0,76.504,7.604,111.959,22.6c34.251,14.487,65.014,35.228,91.433,61.647
		c26.42,26.42,47.161,57.182,61.648,91.433c14.996,35.456,22.6,73.124,22.6,111.96c0,38.835-7.604,76.504-22.6,111.96
		c-14.487,34.251-35.229,65.014-61.648,91.433c-26.419,26.42-57.182,47.161-91.433,61.647
		c-35.455,14.997-73.123,22.601-111.959,22.601c-38.835,0-76.504-7.604-111.959-22.601c-34.251-14.486-65.013-35.228-91.433-61.647
		c-26.419-26.419-47.161-57.182-61.647-91.433C17.604,374.145,10,336.476,10,297.641c0-38.836,7.604-76.504,22.6-111.96
		c14.487-34.251,35.228-65.013,61.647-91.433c26.42-26.419,57.182-47.161,91.433-61.647C221.136,17.604,258.804,10,297.64,10
		 M297.64,0C133.258,0,0,133.258,0,297.641c0,164.383,133.258,297.641,297.64,297.641s297.64-133.258,297.64-297.641
		C595.279,133.258,462.021,0,297.64,0L297.64,0z"/>
</g>
<path display="none" fill="#F89623" stroke="#F89623" stroke-width="3" stroke-miterlimit="10" d="M346.418,191.79
	c22.619,0,40.957-18.336,40.957-40.956s-18.338-40.956-40.957-40.956s-40.955,18.336-40.955,40.956S323.799,191.79,346.418,191.79z
	 M346.418,120.905c16.504,0,29.93,13.426,29.93,29.929s-13.426,29.929-29.93,29.929c-16.502,0-29.928-13.426-29.928-29.929
	S329.916,120.905,346.418,120.905z"/>
<path display="none" fill="#F89623" stroke="#F89623" stroke-width="3" stroke-miterlimit="10" d="M248.755,289.453
	c22.619,0,40.956-18.336,40.956-40.956s-18.337-40.956-40.956-40.956c-22.619,0-40.956,18.336-40.956,40.956
	S226.136,289.453,248.755,289.453z M248.755,218.568c16.502,0,29.929,13.426,29.929,29.929s-13.426,29.929-29.929,29.929
	c-16.503,0-29.929-13.426-29.929-29.929S232.252,218.568,248.755,218.568z"/>
<path display="none" fill="#F89623" stroke="#F89623" stroke-width="3" stroke-miterlimit="10" d="M444.113,289.453
	c22.617,0,40.955-18.336,40.955-40.956s-18.338-40.956-40.955-40.956c-22.619,0-40.955,18.336-40.955,40.956
	S421.494,289.453,444.113,289.453z M444.113,218.568c16.504,0,29.928,13.426,29.928,29.929s-13.424,29.929-29.928,29.929
	c-16.502,0-29.928-13.426-29.928-29.929S427.611,218.568,444.113,218.568z"/>
<path display="none" fill="#F89623" stroke="#F89623" stroke-width="3" stroke-miterlimit="10" d="M151.167,289.453
	c22.619,0,40.956-18.336,40.956-40.956s-18.336-40.956-40.956-40.956s-40.956,18.336-40.956,40.956S128.548,289.453,151.167,289.453
	z M151.167,218.568c16.503,0,29.929,13.426,29.929,29.929s-13.426,29.929-29.929,29.929S121.238,265,121.238,248.498
	S134.665,218.568,151.167,218.568z"/>
<path display="none" fill="#F89623" stroke="#F89623" stroke-width="3" stroke-miterlimit="10" d="M248.755,387.116
	c22.619,0,40.956-18.336,40.956-40.955s-18.337-40.956-40.956-40.956c-22.619,0-40.956,18.337-40.956,40.956
	S226.136,387.116,248.755,387.116z M248.755,316.231c16.502,0,29.929,13.427,29.929,29.93s-13.426,29.929-29.929,29.929
	c-16.503,0-29.929-13.426-29.929-29.929S232.252,316.231,248.755,316.231z"/>
<path display="none" fill="#F89623" stroke="#F89623" stroke-width="3" stroke-miterlimit="10" d="M444.113,305.205
	c-9.322,0-17.912,3.12-24.795,8.366l-40.307-40.281c5.244-6.882,8.363-15.472,8.363-24.792c0-22.619-18.336-40.956-40.955-40.956
	c-9.262,0-17.801,3.077-24.662,8.259l-39.777-41.034c4.859-6.733,7.73-14.995,7.73-23.933c0-22.619-18.337-40.956-40.956-40.956
	c-22.619,0-40.956,18.336-40.956,40.956s18.336,40.956,40.956,40.956c9.702,0,18.61-3.381,25.627-9.019l39.551,40.799
	c-5.307,6.906-8.469,15.545-8.469,24.927c0,22.619,18.336,40.956,40.955,40.956c9.322,0,17.912-3.12,24.795-8.365l40.307,40.28
	c-5.244,6.882-8.363,15.473-8.363,24.793s3.119,17.91,8.363,24.793l-40.307,40.281c-6.883-5.247-15.473-8.367-24.795-8.367
	c-22.619,0-40.955,18.338-40.955,40.957c0,22.618,18.336,40.955,40.955,40.955s40.955-18.337,40.955-40.955
	c0-9.322-3.119-17.909-8.363-24.793l40.307-40.281c6.883,5.246,15.473,8.365,24.795,8.365c22.617,0,40.955-18.336,40.955-40.955
	S466.73,305.205,444.113,305.205z M248.755,180.763c-16.503,0-29.929-13.426-29.929-29.929s13.426-29.929,29.929-29.929
	c16.502,0,29.929,13.426,29.929,29.929S265.258,180.763,248.755,180.763z M346.42,278.427c-16.504,0-29.93-13.426-29.93-29.929
	s13.426-29.929,29.93-29.929c16.502,0,29.93,13.426,29.93,29.929S362.922,278.427,346.42,278.427z M346.42,473.753
	c-16.504,0-29.93-13.427-29.93-29.929c0-16.503,13.426-29.931,29.93-29.931c16.502,0,29.93,13.428,29.93,29.931
	C376.35,460.327,362.922,473.753,346.42,473.753z M444.113,376.089c-16.504,0-29.928-13.426-29.928-29.929
	s13.424-29.93,29.928-29.93c16.502,0,29.928,13.427,29.928,29.93S460.615,376.089,444.113,376.089z"/>
<path display="none" fill="#F89623" stroke="#F89623" stroke-width="3" stroke-miterlimit="10" d="M321.625,378.75
	c6.883,5.246,15.473,8.365,24.795,8.365c22.619,0,40.955-18.336,40.955-40.955s-18.336-40.956-40.955-40.956
	s-40.955,18.337-40.955,40.956c0,9.322,3.119,17.912,8.363,24.795l-40.278,40.278c-6.883-5.246-15.473-8.366-24.795-8.366
	c-9.32,0-17.909,3.119-24.792,8.362l-40.208-40.272c5.246-6.883,8.367-15.474,8.367-24.797c0-22.619-18.336-40.956-40.956-40.956
	s-40.956,18.337-40.956,40.956s18.336,40.955,40.956,40.955c9.32,0,17.909-3.118,24.791-8.362l40.208,40.273
	c-5.247,6.883-8.367,15.472-8.367,24.798c0,22.618,18.336,40.955,40.956,40.955c22.619,0,40.956-18.337,40.956-40.955
	c0-9.322-3.12-17.912-8.365-24.795L321.625,378.75z M346.42,316.231c16.502,0,29.93,13.427,29.93,29.93s-13.428,29.929-29.93,29.929
	c-16.504,0-29.93-13.426-29.93-29.929S329.916,316.231,346.42,316.231z M151.167,376.089c-16.503,0-29.929-13.426-29.929-29.929
	s13.426-29.93,29.929-29.93s29.929,13.427,29.929,29.93S167.67,376.089,151.167,376.089z M248.755,473.753
	c-16.503,0-29.929-13.427-29.929-29.929c0-16.503,13.426-29.931,29.929-29.931c16.502,0,29.929,13.428,29.929,29.931
	C278.684,460.327,265.258,473.753,248.755,473.753z"/>
<path fill="#F89624" d="M199.623,489.647c-0.774,0-1.552-0.134-2.299-0.406c-40.527-14.78-72.023-47.698-91.083-95.193
	c-13.911-34.666-17.17-67.029-17.282-73.798c-0.002-0.116-0.001-0.233,0.003-0.349c0.066-1.861,1.785-45.816,15.9-66.789
	c0.051-0.076,0.104-0.15,0.158-0.225c0.509-0.694,5.281-6.895,15.792-10.917c0.147-0.057,0.298-0.108,0.45-0.154
	c13.011-3.952,26.075-9.931,28.231-12.899l0.031-0.093c0.004-0.012,0.008-0.022,0.011-0.034c-5.362-7.341-9.08-15.767-10.687-24.283
	c-1.705-2.351-2.884-5.229-3.455-8.456c-2.19-8.133-1.98-14.351,0.622-18.507c-2.321-16.121-0.468-23.948,0.554-26.77
	c5.948-18.036,23.267-26.668,28.443-28.888c0.159-0.072,0.339-0.145,0.503-0.204c0.992-0.358,4.487-1.527,7.799-1.527
	c0.438,0,0.868,0.02,1.283,0.06c0.114-0.031,0.236-0.06,0.339-0.084c1.232-0.289,2.371-0.369,3.58-0.234
	c1.155,0.127,7.442,0.916,17.031,3.894c0.066,0.021,0.132,0.042,0.197,0.064l5.669,1.954c12.626,3.737,19.412,10.626,21.814,13.522
	c10.917,12.484,9.535,29.329,7.121,39.845c1.765,4.122,1.669,9.79-0.294,16.906c-0.614,3.278-1.822,6.172-3.539,8.503
	c-1.782,8.526-5.878,17.248-11.546,24.653c0.005,0.034,0.01,0.068,0.015,0.102c0.212,0.204,0.508,0.464,0.911,0.778
	c1.275-2.839,2.575-5.201,3.992-7.283c0.043-0.063,0.087-0.126,0.133-0.188c0.504-0.688,5.226-6.845,15.733-10.896
	c0.153-0.058,0.309-0.112,0.466-0.16c12.904-3.917,25.861-9.827,28.173-12.817c0.021-0.069,0.043-0.139,0.066-0.207
	c-5.389-7.357-9.101-15.799-10.669-24.326c-1.727-2.395-2.874-5.221-3.419-8.434c-2.197-8.128-1.993-14.334,0.605-18.471
	c-2.282-16.021-0.436-23.903,0.566-26.732c6.198-18.869,24.921-27.438,28.618-28.966c0.096-0.04,0.247-0.1,0.345-0.135
	c0.994-0.357,4.489-1.523,7.768-1.523c0.419,0,0.831,0.018,1.229,0.055c0.156-0.046,0.314-0.087,0.474-0.123
	c1.24-0.274,2.352-0.347,3.523-0.216c1.172,0.13,7.481,0.929,17.031,3.894c0.068,0.021,0.137,0.044,0.205,0.067l5.646,1.955
	c13.212,3.938,19.931,11.246,21.853,13.651c10.828,12.441,9.462,29.212,7.058,39.715c1.783,4.111,1.691,9.786-0.28,16.928
	c-0.72,3.86-2.136,6.614-3.537,8.511c-1.762,8.503-5.858,17.223-11.547,24.647c0.005,0.034,0.01,0.067,0.014,0.101
	c0.781,0.749,2.686,2.265,6.935,4.375c1.097,0.463,2.325,0.978,3.659,1.432c0.871,0.278,8.08,2.616,15.849,6.254
	c0.843,0.267,1.371,0.425,1.396,0.433c0.162,0.048,0.323,0.104,0.48,0.164c10.495,4.028,15.223,10.218,15.726,10.911
	c0.045,0.062,0.089,0.123,0.131,0.186c1.511,2.229,2.917,4.835,4.284,7.963c1.422-0.953,2.054-1.577,2.302-1.86
	c0.016-0.054,0.032-0.107,0.049-0.16c-5.372-7.357-9.084-15.793-10.669-24.31c-1.705-2.367-2.872-5.234-3.422-8.422
	c-2.25-8.135-2.05-14.366,0.593-18.548c-2.297-15.999-0.453-23.875,0.547-26.704c6.203-18.88,24.928-27.441,28.623-28.968
	c0.067-0.028,0.187-0.076,0.255-0.102c0.694-0.261,4.337-1.562,7.808-1.562c0.438,0,0.866,0.021,1.281,0.061
	c0.147-0.044,0.297-0.083,0.447-0.117c1.235-0.277,2.35-0.354,3.529-0.223c0.036,0.004,0.071,0.008,0.106,0.013
	c1.644,0.192,7.794,1.051,16.936,3.882c0.069,0.022,0.141,0.045,0.211,0.069l5.646,1.956c13.202,3.941,19.905,11.223,21.823,13.622
	c10.848,12.46,9.488,29.24,7.084,39.744c1.76,4.056,1.674,9.62-0.247,16.888c-0.611,3.293-1.822,6.201-3.545,8.542
	c-1.783,8.526-5.88,17.249-11.547,24.654c0.004,0.034,0.01,0.067,0.015,0.101c0.784,0.748,2.697,2.259,6.947,4.357
	c1.04,0.448,2.273,0.958,3.638,1.422c0.86,0.273,8.1,2.612,15.874,6.231c0.897,0.285,1.438,0.454,1.448,0.457
	c0.139,0.043,0.274,0.09,0.409,0.142c10.48,4.021,15.226,10.169,15.732,10.857c0.056,0.077,0.11,0.154,0.162,0.232
	c14.118,20.974,15.812,64.931,15.877,66.792c0.002,0.053,0.003,0.105,0.004,0.158c0.015,1.33,0.251,32.998-10.481,68.902
	c-14.466,48.396-42.129,80.892-79.998,93.974c-1.927,0.666-4.055,0.422-5.78-0.672c-1.724-1.091-2.858-2.907-3.082-4.935
	c-2.914-26.417-8.541-46.974-15.854-57.926c-0.398-0.484-4.318-5.082-12.646-8.298l-2.265-0.716
	c-0.279-0.088-0.552-0.194-0.817-0.318c-9.466-4.424-18.512-7.296-18.602-7.324c-0.097-0.03-0.191-0.063-0.286-0.098
	c-2.398-0.877-4.354-1.702-5.791-2.322c-0.101-0.043-0.199-0.089-0.298-0.137c-9.869-4.844-15.266-9.467-16.983-14.552
	c-0.229-0.678-0.347-1.384-0.353-2.091c-1.899-2.523-1.8-6.083,0.334-8.491c7.619-8.601,13.012-19.513,14.798-29.938
	c0.229-1.334,0.855-2.567,1.796-3.538c0.756-0.779,1.757-2.307,2.235-5.162c0.042-0.244,0.096-0.487,0.163-0.726
	c1.852-6.508,1.61-10.401,1.172-11.473c-0.086-0.103-0.157-0.192-0.214-0.265c-1.481-1.692-1.995-3.992-1.402-6.162
	c2.127-7.8,5.904-27.271-4.95-39.583c-0.105-0.119-0.205-0.242-0.302-0.368c-0.247-0.324-6.213-7.983-19.983-12.072
	c-0.084-0.025-0.167-0.052-0.25-0.08l-7.218-2.455c-9.862-3.088-16.389-4.023-17.937-4.216c-1.868,0.463-3.556,0.612-5.054,0.446
	c-0.083-0.01-0.165-0.02-0.247-0.033c-0.04-0.004-0.094-0.004-0.149-0.004c-1.323,0-3.532,0.65-4.188,0.909
	c-0.082,0.036-0.096,0.041-0.178,0.072c-0.209,0.082-21.122,8.383-27.237,27.077c-0.031,0.094-0.064,0.188-0.099,0.281
	c-0.124,0.327-2.978,8.258,0.617,29.968c0.425,2.567-0.674,5.134-2.786,6.604c-0.349,0.894-0.754,4.434,1.201,11.436
	c0.065,0.235,0.118,0.473,0.157,0.713c0.467,2.83,1.469,4.355,2.229,5.138c0.984,1.015,1.624,2.313,1.826,3.712
	c1.528,10.55,6.524,21.204,14.066,30c2.31,2.693,2.124,6.721-0.426,9.189c-0.281,0.272-0.429,0.469-0.493,0.564
	c-0.021,0.064-0.042,0.129-0.063,0.193c-0.02,0.07-0.041,0.14-0.063,0.21c-1.333,4.259-5.426,10.211-25.411,18.513
	c-9.25,3.842-18.039,6.588-19.653,7.083c-8.177,3.185-12.118,7.683-12.671,8.35c-10.787,16.183-14.899,47.051-16.392,64.055
	c-0.183,2.079-1.321,3.955-3.082,5.074C202.136,489.292,200.884,489.647,199.623,489.647z M102.384,320.142
	c0.112,2.137,2.105,33.499,16.313,68.907c16.542,41.222,41.796,69.547,75.149,84.326c2.421-21.052,7.445-46.176,17.857-61.607
	c0.049-0.071,0.098-0.142,0.149-0.212c0.604-0.825,6.269-8.2,18.927-13.051c0.151-0.058,0.306-0.111,0.46-0.158
	c17.109-5.172,33.837-12.924,36.328-16.79c0.118-0.51,0.292-0.997,0.519-1.455c-6.972-9.32-11.732-20.065-13.642-30.868
	c-1.694-2.24-3.438-5.536-4.263-10.159c-2.777-10.139-2.494-17.69,0.842-22.465c-2.989-20.387-0.709-30.001,0.531-33.394
	c7.972-24.141,32.962-34.448,35.024-35.261c1.365-0.561,5.48-1.919,9.294-1.919c0.583,0,1.151,0.032,1.693,0.094
	c0.093-0.013,0.284-0.046,0.583-0.122c1.313-0.378,2.696-0.495,4.059-0.365v0.001c1.026,0.102,8.827,0.974,21.146,4.838
	c0.052,0.016,0.103,0.033,0.153,0.05l7.172,2.439c16.621,4.972,24.734,14.25,26.547,16.557
	c13.372,15.331,11.443,36.146,8.434,48.883c2.805,5.996,1.524,14.287-0.245,20.637c-0.847,4.673-2.617,7.981-4.318,10.214
	c-2.205,10.864-7.462,21.975-14.757,31.271c0.098,0.439,0.165,0.873,0.205,1.298c0.874,0.973,3.323,3.153,9.64,6.269
	c1.23,0.529,2.86,1.212,4.803,1.928c1.314,0.421,10.161,3.31,19.687,7.726l2.038,0.646c0.124,0.038,0.247,0.081,0.369,0.128
	c12.674,4.83,18.321,12.219,18.924,13.045c0.047,0.065,0.094,0.131,0.139,0.198c9.47,14.033,14.467,36.511,17.096,55.441
	c73.298-32.632,73.672-143.396,73.659-146.893c-0.085-2.11-1.864-41.956-13.452-59.472c-0.523-0.621-3.425-3.812-9.521-6.193
	c-0.304-0.095-0.91-0.286-1.729-0.547c-0.278-0.089-0.551-0.196-0.814-0.32c-7.409-3.483-14.603-5.766-14.675-5.789
	c-0.043-0.014-0.089-0.028-0.132-0.043c-1.926-0.651-3.616-1.357-4.873-1.9c-0.1-0.043-0.198-0.088-0.296-0.136
	c-8.256-4.051-12.782-7.996-14.242-12.414c-0.174-0.525-0.281-1.067-0.321-1.612c-1.628-2.483-1.445-5.812,0.578-8.111
	c5.914-6.718,10.09-15.167,11.455-23.182c0.229-1.349,0.865-2.596,1.824-3.573c0.377-0.385,1.066-1.35,1.435-3.483
	c0.035-0.204,0.079-0.405,0.134-0.605c1.266-4.7,1.202-7.257,1.023-8.126c-1.463-1.674-2.016-3.991-1.419-6.18
	c1.646-6.035,4.594-21.078-3.602-30.389c-0.084-0.096-0.166-0.195-0.246-0.296c-0.489-0.625-5.081-6.2-15.338-9.229
	c-0.1-0.029-0.198-0.061-0.295-0.095l-5.682-1.968c-7.146-2.207-12.186-3.032-13.879-3.27c-1.54,0.38-3.003,0.479-4.354,0.288
	c-0.734,0.01-2.201,0.39-2.991,0.672c-2.289,0.966-16.618,7.469-20.956,20.79c-0.023,0.072-0.049,0.144-0.073,0.215
	c-0.094,0.258-2.267,6.518,0.538,23.265c0.399,2.39-0.521,4.8-2.387,6.316c-0.171,1.064-0.099,3.803,1.069,7.921
	c0.077,0.268,0.136,0.541,0.178,0.816c0.229,1.495,0.723,2.678,1.426,3.422c0.943,0.998,1.559,2.262,1.762,3.62
	c1.208,8.096,5.203,16.582,10.958,23.284c2.306,2.682,2.132,6.692-0.394,9.167c-0.065,0.063-0.115,0.117-0.152,0.159
	c-0.001,0.002-0.002,0.006-0.003,0.009c-1.492,4.708-6.175,8.654-15.651,13.194c-1.729,0.827-3.727,0.878-5.494,0.137
	c-1.767-0.74-3.132-2.2-3.753-4.012c-1.858-5.418-3.585-9.245-5.425-12.013c-0.484-0.583-3.352-3.802-9.461-6.195
	c-0.334-0.101-0.962-0.295-1.786-0.559c-0.282-0.09-0.559-0.199-0.826-0.326c-7.403-3.503-14.568-5.784-14.641-5.806
	c-0.042-0.014-0.087-0.028-0.129-0.042c-1.9-0.644-3.521-1.33-4.824-1.88c-0.119-0.051-0.236-0.104-0.353-0.162
	c-8.219-4.052-12.737-7.993-14.219-12.401c-0.18-0.535-0.291-1.087-0.333-1.644c-1.63-2.483-1.447-5.813,0.578-8.113
	c5.941-6.746,10.114-15.188,11.45-23.162c0.23-1.377,0.885-2.648,1.872-3.636c0.227-0.227,0.996-1.144,1.391-3.438
	c0.039-0.231,0.092-0.459,0.155-0.684c1.207-4.277,1.232-7.07,1.035-8.041c-1.462-1.667-2.027-3.985-1.426-6.188
	c1.647-6.035,4.597-21.076-3.577-30.365c-0.085-0.097-0.167-0.196-0.247-0.297c-0.491-0.628-5.103-6.229-15.358-9.253
	c-0.101-0.029-0.199-0.061-0.298-0.095l-5.686-1.968c-7.159-2.216-12.19-3.034-13.845-3.266c-1.398,0.343-2.965,0.464-4.325,0.291
	c-0.708,0.006-2.112,0.346-3.084,0.68c-2.41,1.024-16.61,7.535-20.921,20.775c-0.024,0.073-0.048,0.145-0.074,0.216
	c-0.094,0.258-2.268,6.516,0.513,23.274c0.394,2.37-0.51,4.764-2.358,6.282c-0.156,0.951-0.176,3.532,1.052,7.96
	c0.071,0.257,0.127,0.519,0.167,0.783c0.23,1.514,0.711,2.647,1.469,3.464c0.923,0.995,1.522,2.246,1.719,3.588
	c1.188,8.092,5.179,16.569,10.948,23.257c2.332,2.703,2.139,6.756-0.436,9.227c-0.049,0.047-0.086,0.086-0.112,0.115
	c-0.018,0.05-0.037,0.1-0.056,0.15c-1.804,5.475-8.099,10.116-20.997,15.49c-7.333,3.055-14.305,5.251-15.737,5.694
	c-6.145,2.416-9.023,5.628-9.511,6.212c-1.779,2.668-3.406,6.235-5.255,11.517c-0.64,1.828-2.039,3.29-3.836,4.011
	c-1.473,0.59-3.096,0.636-4.582,0.15c-0.37-0.114-0.721-0.254-1.064-0.426c-8.188-4.037-12.706-7.977-14.189-12.383
	c-0.18-0.537-0.291-1.09-0.332-1.648c-1.629-2.483-1.447-5.811,0.578-8.11c5.913-6.717,10.088-15.167,11.453-23.183
	c0.23-1.35,0.867-2.597,1.827-3.574c0.377-0.384,1.066-1.349,1.435-3.483c0.039-0.229,0.091-0.456,0.154-0.679
	c1.232-4.372,1.232-7.19,1.019-8.115c-1.438-1.672-1.978-3.97-1.384-6.142c1.647-6.035,4.594-21.078-3.601-30.389
	c-0.05-0.057-0.099-0.114-0.146-0.173c-1.213-1.475-5.912-6.507-15.448-9.299c-0.101-0.03-0.201-0.062-0.301-0.096l-5.713-1.969
	c-7.225-2.237-12.253-3.047-13.875-3.271c-1.099,0.261-2.824,0.481-4.349,0.261c-0.628,0.01-2.047,0.351-3.006,0.678
	c-2.896,1.251-16.716,7.818-20.954,20.814c-0.03,0.093-0.063,0.186-0.097,0.277c-0.094,0.25-2.264,6.314,0.561,23.2
	c0.399,2.383-0.515,4.78-2.359,6.293c-0.163,0.948-0.196,3.536,1.032,7.991c0.065,0.237,0.118,0.478,0.157,0.721
	c0.311,1.94,0.941,2.934,1.415,3.425c0.963,1,1.593,2.275,1.801,3.648c1.233,8.115,5.237,16.608,10.986,23.3
	c2.304,2.682,2.132,6.69-0.393,9.165c-0.088,0.086-0.151,0.157-0.195,0.208c-0.031,0.085-0.064,0.171-0.098,0.255
	c-1.81,5.363-8.107,9.986-20.957,15.342c-7.344,3.061-14.324,5.26-15.735,5.696c-6.116,2.387-9.03,5.613-9.549,6.23
	C106.078,275.607,102.831,308.378,102.384,320.142z"/>
</svg>
