<?xml version="1.0" encoding="utf-8"?>
<!-- Generator: Adobe Illustrator 15.0.0, SVG Export Plug-In  -->
<!DOCTYPE svg PUBLIC "-//W3C//DTD SVG 1.1//EN" "http://www.w3.org/Graphics/SVG/1.1/DTD/svg11.dtd" [
	<!ENTITY ns_flows "http://ns.adobe.com/Flows/1.0/">
]>
<svg version="1.1"
	 xmlns="http://www.w3.org/2000/svg" xmlns:xlink="http://www.w3.org/1999/xlink" xmlns:a="http://ns.adobe.com/AdobeSVGViewerExtensions/3.0/"
	 x="0px" y="0px" width="595px" height="595px" viewBox="0 0 595 595" enable-background="new 0 0 595 595" xml:space="preserve">
<defs>
</defs>
<g>
	<path fill="#348DA3" d="M297.64,10c38.835,0,76.505,7.604,111.96,22.6c34.25,14.487,65.014,35.228,91.432,61.647
		c26.42,26.42,47.162,57.182,61.648,91.433c14.996,35.456,22.6,73.124,22.6,111.96c0,38.836-7.604,76.504-22.6,111.96
		c-14.486,34.251-35.229,65.013-61.648,91.433c-26.418,26.42-57.182,47.161-91.432,61.648c-35.455,14.996-73.125,22.6-111.96,22.6
		c-38.835,0-76.504-7.604-111.959-22.6c-34.25-14.487-65.013-35.229-91.433-61.648c-26.419-26.42-47.161-57.182-61.647-91.433
		C17.604,374.145,10,336.477,10,297.641c0-38.836,7.604-76.504,22.6-111.96c14.487-34.251,35.228-65.013,61.647-91.433
		c26.42-26.419,57.182-47.161,91.433-61.647C221.136,17.604,258.804,10,297.64,10 M297.64,0C133.258,0,0,133.258,0,297.641
		c0,164.383,133.258,297.641,297.64,297.641s297.64-133.258,297.64-297.641C595.279,133.258,462.021,0,297.64,0L297.64,0z"/>
</g>
<path fill-rule="evenodd" clip-rule="evenodd" fill="#F79622" d="M280.608,102.638c11.396,0,22.79,0,34.185,0
	c44.264,3.852,88.938,11.923,119.645,32.63c11.271,7.601,23.582,20.519,28.744,34.961c4.754,13.299,1.555,42.937,1.555,62.929
	c0,43.309,0,84.733,0,127.413c0,20.324,3.604,50.414-2.33,66.813c-8.916,24.637-37.314,40.014-61.377,48.945
	c-29.502,10.953-59.52,13.777-94.004,16.314c-6.217,0-12.433,0-18.647,0c-32.885-1.908-64.702-5.697-94.782-17.092
	c-25.179-9.537-52.126-24.193-60.598-48.943c-5.129-14.984-2.331-45.068-2.331-66.037c0-42.43,0-83.966,0-125.859
	c0-20.479-3.174-45.096,0.776-62.152c6.419-27.705,38.333-44.319,61.376-52.83C221.222,109.24,247.865,105.53,280.608,102.638z
	 M203.695,132.938c-20.898,7.141-57.076,22.871-56.714,48.945c0.228,16.385,11.89,25.304,22.53,32.63
	c51.222,35.266,151.516,40.747,220.643,17.868c22.195-7.346,56.885-23.165,58.268-48.167c0.863-15.625-10.789-26.594-21.754-34.184
	c-31.432-21.759-81.643-31.182-129.744-31.076C260.897,119.033,233.935,122.605,203.695,132.938z M146.981,217.62
	c-0.043-0.817-0.996-0.611-0.777,0.776c1.226,14.787-2.484,40.393,2.331,53.607c7.049,19.347,37.435,33.995,60.599,41.175
	c55.517,17.209,122.632,16.561,177.136-0.775c23.697-7.537,53.184-20.049,60.598-40.399c5.578-15.313,0.525-38.396,2.33-54.383
	C388.893,274.983,209.213,277.433,146.981,217.62z M146.205,299.194c-1.109,24.084-1.181,52.195,10.1,64.484
	c41.021,44.688,163.225,50.9,233.85,27.191c23.666-7.945,50.266-20.639,56.713-40.4c4.527-13.873,1.365-36.701,2.33-52.828
	c-9.17,5.943-17.801,12.992-28.744,18.645c-74.621,38.541-220.27,32.582-273.472-19.421
	C146.077,296.995,146.138,298.093,146.205,299.194z M146.981,376.885c-0.043-0.816-0.996-0.611-0.777,0.777
	c0.841,12.619-1.962,34.598,2.331,45.838c1.001,2.621,4.365,7.826,6.992,10.875c12.004,13.928,36.564,25.221,59.821,31.854
	c71.751,20.465,187.325,11.311,224.526-31.854c10.045-11.654,10.609-37.125,9.322-57.49
	C388.369,434.008,209.734,436.456,146.981,376.885z"/>
</svg>
