<?xml version="1.0" encoding="utf-8"?>
<!-- Generator: Adobe Illustrator 15.0.0, SVG Export Plug-In  -->
<!DOCTYPE svg PUBLIC "-//W3C//DTD SVG 1.1//EN" "http://www.w3.org/Graphics/SVG/1.1/DTD/svg11.dtd" [
	<!ENTITY ns_flows "http://ns.adobe.com/Flows/1.0/">
]>
<svg version="1.1"
	 xmlns="http://www.w3.org/2000/svg" xmlns:xlink="http://www.w3.org/1999/xlink" xmlns:a="http://ns.adobe.com/AdobeSVGViewerExtensions/3.0/"
	 x="0px" y="0px" width="595px" height="595px" viewBox="0 0 595 595" enable-background="new 0 0 595 595" xml:space="preserve">
<defs>
</defs>
<g>
	<path fill="#348DA3" d="M297.64,10c38.835,0,76.503,7.604,111.958,22.6c34.252,14.487,65.014,35.228,91.434,61.647
		c26.42,26.42,47.16,57.182,61.648,91.433c14.996,35.456,22.6,73.124,22.6,111.96c0,38.836-7.604,76.504-22.6,111.96
		c-14.488,34.251-35.229,65.013-61.648,91.433s-57.182,47.161-91.434,61.648c-35.455,14.996-73.123,22.6-111.958,22.6
		c-38.835,0-76.504-7.604-111.959-22.6c-34.25-14.487-65.013-35.229-91.433-61.648S47.087,443.852,32.6,409.601
		C17.604,374.145,10,336.477,10,297.641c0-38.836,7.604-76.504,22.6-111.96c14.487-34.251,35.228-65.013,61.647-91.433
		C120.667,67.828,151.43,47.087,185.68,32.6C221.136,17.604,258.804,10,297.64,10 M297.64,0C133.258,0,0,133.258,0,297.641
		c0,164.383,133.258,297.641,297.64,297.641s297.64-133.258,297.64-297.641C595.279,133.258,462.021,0,297.64,0L297.64,0z"/>
</g>
<path fill="#F89623" stroke="#F89623" stroke-width="2" stroke-miterlimit="10" d="M346.418,192.102
	c22.619,0,40.957-18.336,40.957-40.956s-18.338-40.956-40.957-40.956s-40.955,18.336-40.955,40.956S323.799,192.102,346.418,192.102
	z M346.418,121.217c16.504,0,29.93,13.426,29.93,29.929s-13.426,29.929-29.93,29.929c-16.502,0-29.928-13.426-29.928-29.929
	S329.916,121.217,346.418,121.217z"/>
<path fill="#F89623" stroke="#F89623" stroke-width="2" stroke-miterlimit="10" d="M248.755,289.765
	c22.619,0,40.956-18.336,40.956-40.956s-18.337-40.956-40.956-40.956c-22.619,0-40.956,18.336-40.956,40.956
	S226.136,289.765,248.755,289.765z M248.755,218.88c16.502,0,29.929,13.426,29.929,29.929s-13.426,29.929-29.929,29.929
	c-16.503,0-29.929-13.426-29.929-29.929S232.252,218.88,248.755,218.88z"/>
<path fill="#F89623" stroke="#F89623" stroke-width="2" stroke-miterlimit="10" d="M444.113,289.765
	c22.617,0,40.955-18.336,40.955-40.956s-18.338-40.956-40.955-40.956c-22.619,0-40.955,18.336-40.955,40.956
	S421.494,289.765,444.113,289.765z M444.113,218.88c16.504,0,29.928,13.426,29.928,29.929s-13.424,29.929-29.928,29.929
	c-16.502,0-29.928-13.426-29.928-29.929S427.611,218.88,444.113,218.88z"/>
<path fill="#F89623" stroke="#F89623" stroke-width="2" stroke-miterlimit="10" d="M151.167,289.765
	c22.619,0,40.956-18.336,40.956-40.956s-18.336-40.956-40.956-40.956s-40.956,18.336-40.956,40.956S128.548,289.765,151.167,289.765
	z M151.167,218.88c16.503,0,29.929,13.426,29.929,29.929s-13.426,29.929-29.929,29.929s-29.929-13.426-29.929-29.929
	S134.665,218.88,151.167,218.88z"/>
<path fill="#F89623" stroke="#F89623" stroke-width="2" stroke-miterlimit="10" d="M248.755,387.427
	c22.619,0,40.956-18.336,40.956-40.955s-18.337-40.956-40.956-40.956c-22.619,0-40.956,18.337-40.956,40.956
	S226.136,387.427,248.755,387.427z M248.755,316.542c16.502,0,29.929,13.427,29.929,29.93s-13.426,29.929-29.929,29.929
	c-16.503,0-29.929-13.426-29.929-29.929S232.252,316.542,248.755,316.542z"/>
<path fill="#F89623" stroke="#F89623" stroke-width="2" stroke-miterlimit="10" d="M444.113,305.516
	c-9.322,0-17.912,3.12-24.795,8.366l-40.307-40.281c5.244-6.882,8.363-15.472,8.363-24.792c0-22.619-18.336-40.956-40.955-40.956
	c-9.262,0-17.801,3.077-24.662,8.259l-39.777-41.034c4.859-6.733,7.73-14.995,7.73-23.933c0-22.619-18.337-40.956-40.956-40.956
	c-22.619,0-40.956,18.336-40.956,40.956s18.336,40.956,40.956,40.956c9.702,0,18.61-3.381,25.627-9.019l39.551,40.799
	c-5.307,6.906-8.469,15.545-8.469,24.927c0,22.619,18.336,40.956,40.955,40.956c9.322,0,17.912-3.12,24.795-8.365l40.307,40.28
	c-5.244,6.882-8.363,15.473-8.363,24.793s3.119,17.91,8.363,24.793l-40.307,40.281c-6.883-5.247-15.473-8.367-24.795-8.367
	c-22.619,0-40.955,18.338-40.955,40.957c0,22.618,18.336,40.955,40.955,40.955s40.955-18.337,40.955-40.955
	c0-9.322-3.119-17.909-8.363-24.793l40.307-40.281c6.883,5.246,15.473,8.365,24.795,8.365c22.617,0,40.955-18.336,40.955-40.955
	S466.73,305.516,444.113,305.516z M248.755,181.075c-16.503,0-29.929-13.426-29.929-29.929s13.426-29.929,29.929-29.929
	c16.502,0,29.929,13.426,29.929,29.929S265.258,181.075,248.755,181.075z M346.42,278.738c-16.504,0-29.93-13.426-29.93-29.929
	s13.426-29.929,29.93-29.929c16.502,0,29.93,13.426,29.93,29.929S362.922,278.738,346.42,278.738z M346.42,474.065
	c-16.504,0-29.93-13.427-29.93-29.929c0-16.503,13.426-29.931,29.93-29.931c16.502,0,29.93,13.428,29.93,29.931
	C376.35,460.638,362.922,474.065,346.42,474.065z M444.113,376.401c-16.504,0-29.928-13.426-29.928-29.929
	s13.424-29.93,29.928-29.93c16.502,0,29.928,13.427,29.928,29.93S460.615,376.401,444.113,376.401z"/>
<path fill="#F89623" stroke="#F89623" stroke-width="2" stroke-miterlimit="10" d="M321.625,379.062
	c6.883,5.246,15.473,8.365,24.795,8.365c22.619,0,40.955-18.336,40.955-40.955s-18.336-40.956-40.955-40.956
	s-40.955,18.337-40.955,40.956c0,9.322,3.119,17.912,8.363,24.795l-40.278,40.278c-6.883-5.246-15.473-8.366-24.795-8.366
	c-9.32,0-17.909,3.119-24.792,8.362l-40.208-40.272c5.246-6.883,8.367-15.474,8.367-24.797c0-22.619-18.336-40.956-40.956-40.956
	s-40.956,18.337-40.956,40.956s18.336,40.955,40.956,40.955c9.32,0,17.909-3.118,24.791-8.362l40.208,40.273
	c-5.247,6.883-8.367,15.472-8.367,24.798c0,22.618,18.336,40.955,40.956,40.955c22.619,0,40.956-18.337,40.956-40.955
	c0-9.322-3.12-17.912-8.365-24.795L321.625,379.062z M346.42,316.542c16.502,0,29.93,13.427,29.93,29.93
	s-13.428,29.929-29.93,29.929c-16.504,0-29.93-13.426-29.93-29.929S329.916,316.542,346.42,316.542z M151.167,376.401
	c-16.503,0-29.929-13.426-29.929-29.929s13.426-29.93,29.929-29.93s29.929,13.427,29.929,29.93S167.67,376.401,151.167,376.401z
	 M248.755,474.065c-16.503,0-29.929-13.427-29.929-29.929c0-16.503,13.426-29.931,29.929-29.931
	c16.502,0,29.929,13.428,29.929,29.931C278.684,460.638,265.258,474.065,248.755,474.065z"/>
</svg>
