<?xml version="1.0" encoding="utf-8"?>
<!-- Generator: Adobe Illustrator 15.0.0, SVG Export Plug-In  -->
<!DOCTYPE svg PUBLIC "-//W3C//DTD SVG 1.1//EN" "http://www.w3.org/Graphics/SVG/1.1/DTD/svg11.dtd" [
	<!ENTITY ns_flows "http://ns.adobe.com/Flows/1.0/">
]>
<svg version="1.1"
	 xmlns="http://www.w3.org/2000/svg" xmlns:xlink="http://www.w3.org/1999/xlink" xmlns:a="http://ns.adobe.com/AdobeSVGViewerExtensions/3.0/"
	 x="0px" y="0px" width="595px" height="595px" viewBox="0 0 595 595" enable-background="new 0 0 595 595" xml:space="preserve">
<defs>
</defs>
<g>
	<path fill="#348DA3" d="M297.64,10c38.835,0,76.505,7.604,111.96,22.6c34.25,14.487,65.014,35.228,91.432,61.648
		c26.42,26.419,47.162,57.182,61.648,91.433c14.996,35.456,22.6,73.124,22.6,111.96s-7.604,76.505-22.6,111.96
		c-14.486,34.251-35.229,65.014-61.648,91.433c-26.418,26.42-57.182,47.161-91.432,61.648c-35.455,14.996-73.125,22.6-111.96,22.6
		c-38.835,0-76.504-7.604-111.959-22.6c-34.25-14.487-65.013-35.229-91.433-61.648c-26.419-26.419-47.161-57.182-61.647-91.433
		C17.604,374.146,10,336.477,10,297.641s7.604-76.504,22.6-111.96c14.487-34.251,35.228-65.013,61.647-91.433
		c26.42-26.42,57.182-47.161,91.433-61.648C221.136,17.604,258.804,10,297.64,10 M297.64,0C133.258,0,0,133.258,0,297.641
		s133.258,297.641,297.64,297.641s297.64-133.258,297.64-297.641S462.021,0,297.64,0L297.64,0z"/>
</g>
<path display="none" fill="#F79520" d="M184.626,267.359c0,25.514,8.247,49.638,23.84,69.764c0.081,0.088,0.159,0.189,0.248,0.284
	c32.538,45.171,24.45,66.651,24.45,66.695c-1.742,3.717-0.139,8.131,3.578,9.888c1.018,0.472,2.084,0.696,3.145,0.696
	c2.794,0,5.474-1.583,6.736-4.283c1.344-2.86,11.979-29.459-26.244-82.223c-0.165-0.232-0.34-0.457-0.529-0.67
	c-13.314-17.392-20.355-38.177-20.355-60.159c0-54.626,44.45-99.066,99.065-99.066c54.624,0,99.065,44.439,99.065,99.066
	c0,22.041-7.07,42.909-20.595,60.495c-38.237,52.808-27.179,79.71-25.793,82.615c1.742,3.63,6.033,5.125,9.707,3.484
	c3.665-1.646,5.334-6.019,3.78-9.734c-0.088-0.218-8.609-22.137,24.218-67.473c15.406-20.041,23.552-44.03,23.552-69.38
	c0-62.827-51.107-113.934-113.935-113.934C235.734,153.426,184.626,204.541,184.626,267.359z"/>
<path display="none" fill="#F79520" d="M366.918,445.306v-6.316c0-10.077-8.204-18.266-18.266-18.266H248.468
	c-10.068,0-18.266,8.188-18.266,18.266v6.316c0,10.062,8.197,18.264,18.266,18.264h100.191
	C358.729,463.569,366.918,455.38,366.918,445.306z M245.07,445.306v-6.316c0-1.874,1.525-3.397,3.397-3.397h100.191
	c1.874,0,3.39,1.523,3.39,3.397v6.316c0,1.871-1.516,3.396-3.39,3.396H248.468C246.596,448.702,245.07,447.177,245.07,445.306z"/>
<path display="none" fill="#F79520" d="M258.443,472.866c-4.11,0-7.433,3.338-7.433,7.435v19.636c0,2.912,1.698,5.556,4.347,6.76
	l40.067,18.278c0.973,0.45,2.024,0.676,3.077,0.676c1.09,0,2.179-0.238,3.181-0.718l40.175-18.948
	c2.6-1.233,4.254-3.847,4.254-6.723v-18.947c0-4.11-3.325-7.433-7.433-7.433c-4.11,0-7.435,3.322-7.435,7.433v14.243l-32.784,15.478
	l-32.583-14.867v-14.854C265.876,476.19,262.552,472.866,258.443,472.866z"/>
<path display="none" fill="#F79520" d="M472.395,401.693c2.442-3.306,1.734-7.957-1.568-10.396l-50.424-37.186
	c-3.31-2.439-7.958-1.741-10.396,1.568c-2.438,3.303-1.728,7.957,1.569,10.396l50.434,37.185c1.326,0.979,2.881,1.45,4.405,1.45
	C468.692,404.711,470.943,403.666,472.395,401.693z"/>
<path display="none" fill="#F79520" d="M176.912,193.07c1.329,0.983,2.875,1.452,4.407,1.452c2.287,0,4.522-1.05,5.989-3.027
	c2.439-3.299,1.736-7.953-1.569-10.392l-51.571-38.017c-3.296-2.446-7.95-1.734-10.39,1.569c-2.432,3.306-1.734,7.96,1.569,10.399
	L176.912,193.07z"/>
<path display="none" fill="#F79520" d="M179.249,351.557l-53.896,39.74c-3.296,2.439-4.008,7.091-1.568,10.396
	c1.459,1.973,3.709,3.018,5.997,3.018c1.523,0,3.079-0.464,4.399-1.444l53.895-39.746c3.312-2.439,4.009-7.085,1.576-10.389
	C187.199,349.829,182.552,349.125,179.249,351.557z"/>
<path display="none" fill="#F79520" d="M413.781,178.649c-3.31,2.439-4.008,7.093-1.566,10.392c1.45,1.978,3.699,3.027,5.98,3.027
	c1.539,0,3.077-0.476,4.412-1.449l48.236-35.565c3.311-2.439,4.007-7.093,1.565-10.392c-2.431-3.3-7.078-4.015-10.388-1.568
	L413.781,178.649z"/>
<path display="none" fill="#F79520" d="M501.624,265.748h-56.857c-4.117,0-7.437,3.328-7.437,7.432c0,4.104,3.319,7.436,7.437,7.436
	h56.857c4.109,0,7.433-3.332,7.433-7.436C509.057,269.076,505.733,265.748,501.624,265.748z"/>
<path display="none" fill="#F79520" d="M159.766,273.18c0-4.104-3.325-7.432-7.436-7.432H93.659c-4.11,0-7.436,3.328-7.436,7.432
	c0,4.104,3.325,7.436,7.436,7.436h58.671C156.44,280.615,159.766,277.283,159.766,273.18z"/>
<path fill="#F79622" d="M516.255,217.3c-0.226-1-2.179-8.789-2.179-8.789l-4.071-1.071c-2.371-0.623-5.075-0.939-8.036-0.939
	c-26.914,0-75.716,26.748-77.78,27.886l-0.808,0.532l-0.178,0.106c-1.231,0-3.637-1.487-5.164-2.902
	c-23.762-28.661-48.588-43.19-73.792-43.19c-23.491,0-40.796,12.528-49.724,20.888c-14.771-15.09-29.56-22.737-43.979-22.737
	c-28.601,0-44.819,29.15-48.084,35.666c-7.187,7.754-15.1,11.686-23.522,11.686c-6.459,0-11.114-2.346-11.846-2.737
	c-9.139-5.846-54.683-34.458-70.4-34.458c-6.245,0-8.695,3.732-9.458,5.337c-9.972,20.972-16.766,49.54-18.641,78.377
	c-1.774,27.292,1.119,49.841,7.739,60.318c3.91,6.189,7.285,8.83,11.284,8.83c0.255,0,24.231-0.014,27.403-0.141l0,0.014
	c0.012,0,0.509-0.012,1.362-0.012c3.931,0,17.211,0.258,23.056,3.563c5.466,3.091,12.897,7.292,24.888,12.827
	c-0.179,16.124-2.243,50.379-2.264,50.732l-0.026,0.446l0.034,0.444c0.836,11.124,8.884,18.312,20.504,18.312
	c2.918,0,5.859-0.464,8.609-1.352c0.499,1.133,1.125,2.219,1.873,3.245c4.101,5.622,11.933,9.255,19.953,9.255
	c0.495,0,0.988-0.014,1.477-0.041c-0.284,3.998,0.503,7.548,2.348,10.577c3.635,5.976,10.727,9.005,21.078,9.005
	c1.775,0,3.642-0.089,5.572-0.267c0.342,4.858,1.741,10.997,6.013,15.914c4.424,5.094,10.735,7.676,18.754,7.676
	c1.25,0,2.542-0.063,3.833-0.188l1.518-0.143l1.303-0.796c0.9-0.551,22.088-13.706,34.714-37.769
	c0.904-0.711,1.738-1.525,2.493-2.432c5.595,2.465,11.743,3.762,17.88,3.762c12.606,0,22.802-5.305,27.726-14.3
	c7.716,4.434,15.673,6.768,23.124,6.768c14.59,0,25.671-9.063,29.363-23.813c4.365,1.569,8.834,2.363,13.316,2.363
	c13.91-0.004,26.627-7.823,33.188-20.406c6.651-12.757,5.506-27.8-3.061-40.256c-2.539-4.464-5.136-8.797-7.887-13.162
	c0.427,0.004,0.842,0.005,1.25,0.005c17.077,0,42.968-3.563,43.227-3.599l0.447-0.063l0.369-0.26
	C538.026,313.032,524.544,254.12,516.255,217.3z M177.539,364.291v-1.829l-0.619-1.031c0.042-0.094,0.096-0.205,0.168-0.332
	c1.528-2.698,6.217-5.704,10.504-5.704c4.676,0,7.601,4.063,8.693,12.074l0.057,0.423c0.968,13.527,1.444,38.229-6.08,52.94
	c-1.604,1.13-4.369,2.256-7.69,2.256c-6.534,0-7.144-4.129-7.304-5.702C175.541,412.842,177.539,378.936,177.539,364.291z
	 M447.011,336.735c-2.553,0-5.288-0.066-8.145-0.198l-58.421-69.879l-0.58-0.609c-0.612-0.568-15.19-13.897-31.054-13.897
	c-8.019,0-19.149,3.366-26.601,19.332l-15.076,28.995c-3.212,4.197-9.34,6.902-15.661,6.902c-5.765,0-10.717-2.198-13.588-6.032
	c-3.71-4.95-4.208-12.679-1.439-22.355l23.09-55.416c3.614-4.083,20.42-21.442,44.711-21.442c21.166,0,42.651,13.018,63.917,38.756
	l0.363,0.397c0.71,0.711,7.155,6.938,14.676,6.938c2.815,0,5.494-0.863,7.757-2.496c3.143-1.702,48.49-26.03,71.009-26.03
	c0.188,0,0.375,0.002,0.561,0.006c0.387,2.235,1.04,5.125,1.823,8.6c5.797,25.685,17.845,79.054-20.222,106.434
	C481.044,335.203,459.339,336.735,447.011,336.735z M380.84,432.002c-6.791,0-14.55-3.038-21.878-8.562l-33.611-52.908l-11.14,7.079
	l32.958,51.882c-2.371,9.304-13.694,10.041-17.179,10.041c-4.729,0-9.386-1.066-13.543-3.093c0.033-2.459-0.304-4.979-1.006-7.509
	c-2.618-9.451-10.852-18.987-23.344-18.987c-0.549,0-1.103,0.02-1.659,0.058c7.151-22.34,6.524-40.467,6.492-41.258l-0.086-0.822
	c-4.359-26.144-20.605-28.966-27.393-28.966l-0.373,0.001c-8.636,0.124-17.998,4.668-24.531,11.762
	c-6.568-11.068-14.315-13.481-19.835-13.481l-0.462,0.006c-7.422,0.188-15.044,4.883-20.795,12.69
	c-5.15-6.671-12.006-7.74-15.863-7.74c-7.917,0-16.415,4.419-20.892,10.698c-9.632-4.566-16.003-8.166-20.765-10.856
	c-7.673-4.339-12.046-5.04-19.544-5.04c-0.781,0-3.148-0.072-6.145-0.164c-6.479-0.197-16.27-0.497-23.472-0.497
	c-4.339,0-6.533,0.109-7.743,0.232c-7.775-10.553-10.074-82.191,9.071-125.997c10.578,1.696,42.1,19.585,62.057,32.362l0.166,0.102
	c0.316,0.188,7.873,4.602,18.612,4.602c8.644,0,21.551-2.904,33.958-16.741l0.654-0.732l0.411-0.882
	c0.136-0.29,13.902-28.996,36.583-28.996c11.174,0,23.268,6.812,35.96,20.25l-22.388,53.727l-0.243,0.686
	c-5.168,17.667-0.979,28.414,3.447,34.32c5.391,7.191,14.194,11.315,24.153,11.315c10.813,0,21.025-4.892,26.649-12.766
	l15.869-30.376l0.108-0.224c3.705-7.983,8.518-11.864,14.711-11.864c3.646,0,7.787,1.218,12.31,3.621l6.104,3.842
	c1.74,1.263,2.948,2.287,3.403,2.682l38.111,45.585c9.316,11.594,21.552,27.616,33.624,48.863l0.28,0.44
	c5.951,8.528,6.81,18.318,2.357,26.859c-4.28,8.207-12.513,13.306-21.488,13.307c-4.709,0-9.474-1.38-14.171-4.101L356.9,330.663
	l-10.855,7.514l52.126,75.327C397.095,425.439,390.959,432.002,380.84,432.002z M203.247,426.507l0.951-3.712l-0.305-0.124
	c7.032-17.605,6.602-41.942,5.664-55.299c1.163-6.36,8.542-16.767,15.015-16.931l0.177-0.003
	c5.976,0.019,10.423,10.381,12.093,14.925l0.03,0.07c-0.258,10.9-2.479,45.902-19.761,68.043c-1.636,0.682-3.39,0.761-4.104,0.761
	c-3.762,0-7.667-1.611-9.287-3.832C202.893,429.269,202.746,428.066,203.247,426.507z M231.162,438.192l0.15-0.315
	c0-0.001,0.434-0.982,0.52-1.17l0.776-1.671l-0.367-0.177c15.127-24.205,17.523-55.509,17.833-68.344
	c2.411-7.426,11.504-14.247,19.171-14.356l0.218-0.001c9.725,0.005,13.12,10.889,14.283,17.486
	c0.033,2.569-0.029,20.104-7.246,40.308c-5.173,11.59-16.309,32.76-26.361,41.368l-0.296-0.265l-1.244,1.126
	c-0.206,0.186-0.404,0.377-0.598,0.573c-2.253,0.426-6.125,1.024-10.093,1.024c-7.588,0-9.42-2.043-9.802-2.669
	C227.161,449.555,227.458,445.356,231.162,438.192z M256.597,463.432l0.639-0.895c9.58-7.505,18.484-21.918,24.555-33.365
	l0.276,0.166l3.242-4.423c2.431-1.173,4.713-1.769,6.79-1.769c5.939,0,9.433,5.014,10.621,9.308c0.898,3.241-3.273,9.81-3.273,9.81
	l-0.859,1.722c-9.237,18.473-25.208,30.271-29.317,33.097c-4.579,0.192-7.793-0.81-9.789-3.089
	C256.739,470.864,256.516,465.898,256.597,463.432z"/>
</svg>
