<?xml version="1.0" encoding="utf-8"?>
<!-- Generator: Adobe Illustrator 15.0.0, SVG Export Plug-In  -->
<!DOCTYPE svg PUBLIC "-//W3C//DTD SVG 1.1//EN" "http://www.w3.org/Graphics/SVG/1.1/DTD/svg11.dtd" [
	<!ENTITY ns_flows "http://ns.adobe.com/Flows/1.0/">
]>
<svg version="1.1"
	 xmlns="http://www.w3.org/2000/svg" xmlns:xlink="http://www.w3.org/1999/xlink" xmlns:a="http://ns.adobe.com/AdobeSVGViewerExtensions/3.0/"
	 x="0px" y="0px" width="743px" height="266px" viewBox="-0.123 -0.046 743 266" enable-background="new -0.123 -0.046 743 266"
	 xml:space="preserve">
<defs>
</defs>
<path fill="#338CA2" stroke="#338CA2" stroke-miterlimit="10" d="M50.5,41.521c6.524,0,12.852,1.277,18.808,3.797
	c5.754,2.434,10.922,5.918,15.36,10.356s7.922,9.606,10.356,15.36c2.52,5.956,3.797,12.284,3.797,18.808s-1.277,12.852-3.797,18.808
	c-2.434,5.754-5.918,10.921-10.356,15.359c-4.438,4.438-9.606,7.923-15.36,10.356c-5.956,2.519-12.284,3.796-18.808,3.796
	s-12.852-1.277-18.808-3.796c-5.754-2.434-10.922-5.918-15.36-10.356c-4.438-4.438-7.922-9.605-10.356-15.359
	c-2.52-5.956-3.797-12.284-3.797-18.808s1.277-12.852,3.797-18.808c2.434-5.754,5.918-10.922,10.356-15.36s9.606-7.922,15.36-10.356
	C37.648,42.798,43.976,41.521,50.5,41.521 M50.5,39.841c-27.614,0-50,22.386-50,50s22.386,50,50,50s50-22.386,50-50
	S78.114,39.841,50.5,39.841L50.5,39.841z"/>
<path fill="#F79420" d="M31.515,84.754c0,4.286,1.385,8.339,4.005,11.72c0.014,0.015,0.026,0.032,0.042,0.047
	c5.466,7.588,4.107,11.197,4.107,11.204c-0.293,0.625-0.023,1.366,0.601,1.661c0.171,0.079,0.35,0.117,0.528,0.117
	c0.469,0,0.919-0.266,1.131-0.72c0.226-0.48,2.012-4.949-4.409-13.813c-0.028-0.039-0.057-0.077-0.089-0.112
	c-2.237-2.922-3.419-6.414-3.419-10.106c0-9.177,7.467-16.642,16.642-16.642c9.176,0,16.642,7.465,16.642,16.642
	c0,3.703-1.188,7.208-3.46,10.162c-6.423,8.871-4.565,13.391-4.333,13.878c0.292,0.61,1.013,0.861,1.63,0.585
	c0.616-0.277,0.896-1.011,0.635-1.635c-0.015-0.037-1.446-3.719,4.068-11.334c2.588-3.367,3.956-7.397,3.956-11.655
	c0-10.554-8.585-19.139-19.14-19.139C40.101,65.615,31.515,74.201,31.515,84.754z"/>
<path fill="#F79420" d="M62.138,114.647v-1.061c0-1.693-1.378-3.068-3.068-3.068H42.24c-1.691,0-3.068,1.375-3.068,3.068v1.061
	c0,1.69,1.377,3.068,3.068,3.068h16.831C60.762,117.715,62.138,116.339,62.138,114.647z M41.669,114.647v-1.061
	c0-0.315,0.256-0.571,0.571-0.571h16.831c0.314,0,0.569,0.256,0.569,0.571v1.061c0,0.314-0.255,0.57-0.569,0.57H42.24
	C41.925,115.217,41.669,114.961,41.669,114.647z"/>
<path fill="#F79420" d="M43.916,119.277c-0.691,0-1.249,0.561-1.249,1.249v3.299c0,0.489,0.285,0.933,0.73,1.136l6.731,3.07
	c0.163,0.076,0.34,0.114,0.517,0.114c0.183,0,0.366-0.04,0.534-0.121l6.749-3.183c0.437-0.208,0.715-0.646,0.715-1.129v-3.183
	c0-0.69-0.559-1.249-1.249-1.249c-0.691,0-1.249,0.558-1.249,1.249v2.393l-5.507,2.6l-5.474-2.498v-2.495
	C45.164,119.835,44.605,119.277,43.916,119.277z"/>
<path fill="#F79420" d="M79.856,107.32c0.411-0.555,0.292-1.336-0.263-1.746l-8.471-6.247c-0.556-0.41-1.337-0.292-1.747,0.264
	c-0.41,0.555-0.29,1.336,0.264,1.747l8.472,6.247c0.223,0.165,0.484,0.244,0.74,0.244C79.235,107.828,79.613,107.652,79.856,107.32z
	"/>
<path fill="#F79420" d="M30.219,72.274c0.223,0.165,0.483,0.244,0.74,0.244c0.384,0,0.76-0.176,1.006-0.508
	c0.41-0.554,0.292-1.336-0.263-1.746l-8.664-6.386c-0.554-0.411-1.335-0.292-1.746,0.263c-0.408,0.556-0.291,1.337,0.264,1.747
	L30.219,72.274z"/>
<path fill="#F79420" d="M30.612,98.898l-9.054,6.676c-0.554,0.41-0.673,1.191-0.264,1.746c0.245,0.332,0.623,0.507,1.007,0.507
	c0.256,0,0.518-0.078,0.739-0.243l9.054-6.677c0.556-0.41,0.673-1.19,0.265-1.745C31.947,98.608,31.167,98.49,30.612,98.898z"/>
<path fill="#F79420" d="M70.01,69.852c-0.556,0.41-0.673,1.192-0.263,1.746c0.244,0.332,0.622,0.508,1.005,0.508
	c0.258,0,0.517-0.08,0.741-0.243l8.103-5.975c0.556-0.41,0.673-1.191,0.263-1.746c-0.408-0.554-1.189-0.675-1.745-0.264
	L70.01,69.852z"/>
<path fill="#F79420" d="M84.767,84.483h-9.552c-0.691,0-1.249,0.559-1.249,1.249c0,0.689,0.558,1.249,1.249,1.249h9.552
	c0.69,0,1.249-0.56,1.249-1.249C86.016,85.042,85.457,84.483,84.767,84.483z"/>
<path fill="#F79420" d="M27.339,85.732c0-0.689-0.559-1.249-1.249-1.249h-9.856c-0.69,0-1.249,0.559-1.249,1.249
	c0,0.689,0.559,1.249,1.249,1.249h9.856C26.78,86.981,27.339,86.421,27.339,85.732z"/>
<path fill="#338CA2" stroke="#338CA2" stroke-miterlimit="10" d="M210.807,41.521c6.524,0,12.852,1.277,18.808,3.797
	c5.754,2.434,10.922,5.918,15.36,10.356s7.922,9.606,10.356,15.36c2.52,5.956,3.797,12.284,3.797,18.808s-1.277,12.852-3.797,18.808
	c-2.434,5.754-5.918,10.922-10.356,15.36s-9.606,7.922-15.36,10.356c-5.956,2.52-12.284,3.796-18.808,3.796
	s-12.852-1.277-18.808-3.796c-5.754-2.434-10.922-5.918-15.36-10.356s-7.922-9.606-10.356-15.36
	c-2.52-5.956-3.797-12.284-3.797-18.808s1.277-12.852,3.797-18.808c2.434-5.754,5.918-10.922,10.356-15.36s9.606-7.922,15.36-10.356
	C197.955,42.798,204.283,41.521,210.807,41.521 M210.807,39.841c-27.614,0-50,22.386-50,50c0,27.615,22.386,50,50,50
	s50-22.386,50-50C260.807,62.227,238.421,39.841,210.807,39.841L210.807,39.841z"/>
<path fill="#F79524" d="M194.341,122.096c-0.13,0-0.261-0.022-0.386-0.068c-6.808-2.483-12.099-8.013-15.301-15.991
	c-2.336-5.823-2.884-11.26-2.903-12.397c0-0.02,0-0.04,0-0.059c0.011-0.313,0.3-7.697,2.671-11.22
	c0.009-0.013,0.018-0.025,0.027-0.038c0.085-0.116,0.887-1.158,2.653-1.834c0.024-0.009,0.05-0.018,0.075-0.026
	c2.186-0.664,4.38-1.668,4.743-2.167l0.005-0.016c0-0.002,0.001-0.004,0.002-0.006c-0.901-1.233-1.525-2.649-1.795-4.08
	c-0.287-0.395-0.484-0.878-0.581-1.42c-0.368-1.366-0.333-2.411,0.104-3.109c-0.39-2.708-0.079-4.023,0.093-4.497
	c0.999-3.03,3.909-4.48,4.778-4.853c0.026-0.012,0.057-0.024,0.084-0.034c0.167-0.061,0.753-0.257,1.31-0.257
	c0.073,0,0.146,0.003,0.215,0.01c0.019-0.005,0.04-0.01,0.057-0.014c0.207-0.048,0.398-0.062,0.601-0.04
	c0.194,0.021,1.25,0.154,2.861,0.654c0.011,0.003,0.022,0.007,0.033,0.011l0.952,0.328c2.121,0.628,3.261,1.785,3.665,2.271
	c1.834,2.098,1.602,4.927,1.196,6.694c0.296,0.692,0.28,1.645-0.05,2.84c-0.103,0.551-0.306,1.037-0.594,1.429
	c-0.299,1.432-0.988,2.897-1.939,4.141c0,0.006,0.001,0.012,0.002,0.017c0.036,0.034,0.085,0.078,0.153,0.131
	c0.214-0.477,0.433-0.874,0.671-1.224c0.007-0.011,0.015-0.021,0.022-0.031c0.085-0.116,0.878-1.15,2.643-1.831
	c0.026-0.01,0.052-0.019,0.078-0.027c2.168-0.658,4.345-1.651,4.733-2.153c0.003-0.011,0.007-0.023,0.011-0.035
	c-0.905-1.236-1.529-2.654-1.792-4.086c-0.29-0.402-0.482-0.877-0.574-1.417c-0.369-1.366-0.335-2.408,0.102-3.103
	c-0.383-2.691-0.073-4.016,0.095-4.491c1.041-3.169,4.187-4.609,4.807-4.866c0.016-0.007,0.042-0.017,0.058-0.023
	c0.167-0.06,0.754-0.256,1.305-0.256c0.07,0,0.139,0.003,0.206,0.009c0.026-0.008,0.053-0.015,0.08-0.021
	c0.208-0.046,0.395-0.059,0.592-0.037c0.197,0.022,1.257,0.156,2.861,0.654c0.011,0.004,0.023,0.007,0.034,0.011l0.949,0.329
	c2.219,0.661,3.348,1.889,3.671,2.293c1.819,2.09,1.589,4.907,1.186,6.672c0.3,0.69,0.284,1.644-0.047,2.844
	c-0.121,0.648-0.359,1.111-0.594,1.43c-0.296,1.428-0.984,2.893-1.94,4.141c0.001,0.005,0.002,0.011,0.002,0.017
	c0.131,0.126,0.451,0.38,1.165,0.735c0.184,0.078,0.391,0.165,0.615,0.241c0.146,0.047,1.357,0.439,2.662,1.051
	c0.142,0.044,0.23,0.071,0.235,0.072c0.027,0.008,0.054,0.018,0.081,0.028c1.763,0.677,2.557,1.716,2.642,1.833
	c0.008,0.01,0.015,0.021,0.022,0.031c0.254,0.375,0.49,0.812,0.72,1.337c0.239-0.16,0.345-0.265,0.387-0.312
	c0.003-0.009,0.005-0.018,0.008-0.027c-0.902-1.236-1.526-2.653-1.792-4.084c-0.286-0.397-0.482-0.879-0.575-1.415
	c-0.378-1.367-0.344-2.414,0.1-3.116c-0.386-2.688-0.076-4.011,0.092-4.486c1.042-3.172,4.188-4.61,4.809-4.866
	c0.011-0.005,0.031-0.013,0.042-0.017c0.117-0.044,0.729-0.263,1.312-0.263c0.073,0,0.146,0.004,0.215,0.01
	c0.025-0.007,0.05-0.014,0.075-0.02c0.208-0.046,0.395-0.06,0.593-0.038c0.006,0.001,0.012,0.001,0.018,0.002
	c0.276,0.032,1.31,0.176,2.845,0.652c0.011,0.004,0.023,0.008,0.035,0.012l0.949,0.329c2.218,0.662,3.344,1.885,3.666,2.288
	c1.822,2.093,1.594,4.912,1.19,6.677c0.295,0.681,0.281,1.616-0.042,2.837c-0.103,0.553-0.306,1.042-0.596,1.435
	c-0.299,1.432-0.987,2.897-1.939,4.142c0,0.005,0.001,0.011,0.002,0.017c0.132,0.125,0.453,0.38,1.167,0.732
	c0.175,0.075,0.382,0.161,0.611,0.239c0.145,0.046,1.36,0.438,2.667,1.046c0.151,0.048,0.242,0.076,0.243,0.077
	c0.023,0.007,0.046,0.016,0.069,0.024c1.761,0.675,2.558,1.708,2.643,1.824c0.01,0.013,0.019,0.026,0.027,0.039
	c2.372,3.523,2.656,10.908,2.667,11.221c0,0.009,0,0.018,0,0.026c0.002,0.224,0.042,5.543-1.761,11.575
	c-2.43,8.13-7.077,13.589-13.439,15.787c-0.324,0.112-0.681,0.071-0.971-0.113s-0.48-0.489-0.518-0.829
	c-0.489-4.438-1.435-7.891-2.663-9.731c-0.067-0.081-0.726-0.854-2.125-1.394l-0.38-0.12c-0.047-0.015-0.093-0.033-0.137-0.053
	c-1.59-0.743-3.11-1.226-3.125-1.23c-0.016-0.005-0.032-0.011-0.048-0.017c-0.403-0.147-0.731-0.286-0.973-0.39
	c-0.017-0.007-0.033-0.015-0.05-0.023c-1.658-0.813-2.564-1.59-2.853-2.444c-0.039-0.114-0.058-0.232-0.059-0.352
	c-0.319-0.424-0.303-1.021,0.056-1.426c1.28-1.445,2.186-3.278,2.486-5.029c0.038-0.224,0.144-0.431,0.301-0.594
	c0.127-0.131,0.295-0.388,0.375-0.867c0.007-0.041,0.016-0.082,0.028-0.122c0.311-1.093,0.271-1.747,0.197-1.927
	c-0.015-0.017-0.026-0.032-0.036-0.044c-0.249-0.284-0.335-0.67-0.235-1.035c0.357-1.31,0.992-4.581-0.832-6.649
	c-0.018-0.02-0.035-0.041-0.051-0.062c-0.042-0.055-1.044-1.341-3.357-2.028c-0.014-0.004-0.028-0.009-0.042-0.013l-1.212-0.413
	c-1.657-0.519-2.753-0.676-3.013-0.708c-0.314,0.078-0.598,0.103-0.849,0.075c-0.014-0.001-0.028-0.003-0.042-0.005
	c-0.007-0.001-0.016-0.001-0.025-0.001c-0.222,0-0.593,0.109-0.704,0.153c-0.014,0.006-0.016,0.007-0.03,0.012
	c-0.035,0.014-3.548,1.408-4.576,4.549c-0.005,0.016-0.011,0.031-0.017,0.047c-0.021,0.055-0.5,1.387,0.104,5.034
	c0.071,0.431-0.113,0.862-0.468,1.109c-0.059,0.15-0.126,0.745,0.202,1.921c0.011,0.04,0.02,0.079,0.026,0.12
	c0.079,0.476,0.247,0.732,0.375,0.863c0.166,0.17,0.273,0.389,0.307,0.624c0.257,1.772,1.096,3.562,2.363,5.04
	c0.388,0.453,0.356,1.129-0.072,1.543c-0.047,0.046-0.072,0.079-0.083,0.095c-0.003,0.011-0.007,0.021-0.01,0.032
	c-0.003,0.012-0.007,0.023-0.011,0.035c-0.224,0.716-0.912,1.715-4.269,3.11c-1.554,0.645-3.031,1.106-3.302,1.189
	c-1.374,0.535-2.036,1.291-2.128,1.403c-1.812,2.718-2.503,7.904-2.754,10.76c-0.03,0.35-0.222,0.665-0.518,0.853
	C194.763,122.036,194.553,122.096,194.341,122.096z M178.006,93.621c0.019,0.359,0.354,5.627,2.741,11.576
	c2.779,6.925,7.021,11.683,12.624,14.166c0.407-3.536,1.25-7.757,3-10.349c0.008-0.012,0.016-0.024,0.025-0.036
	c0.102-0.139,1.053-1.377,3.18-2.192c0.025-0.01,0.051-0.019,0.077-0.027c2.874-0.869,5.684-2.171,6.103-2.82
	c0.02-0.085,0.049-0.167,0.087-0.245c-1.171-1.565-1.971-3.371-2.292-5.186c-0.285-0.376-0.578-0.93-0.716-1.707
	c-0.467-1.703-0.419-2.972,0.141-3.773c-0.502-3.425-0.119-5.04,0.089-5.61c1.339-4.056,5.537-5.787,5.884-5.924
	c0.229-0.094,0.92-0.322,1.561-0.322c0.098,0,0.193,0.005,0.285,0.016c0.016-0.002,0.048-0.008,0.098-0.021
	c0.22-0.063,0.453-0.083,0.682-0.061l0,0c0.172,0.017,1.483,0.164,3.552,0.813c0.009,0.002,0.017,0.005,0.026,0.008l1.205,0.41
	c2.792,0.835,4.155,2.394,4.459,2.781c2.247,2.576,1.922,6.072,1.417,8.212c0.471,1.007,0.256,2.4-0.042,3.467
	c-0.142,0.785-0.439,1.341-0.725,1.716c-0.371,1.825-1.253,3.691-2.479,5.253c0.016,0.074,0.028,0.147,0.034,0.218
	c0.147,0.163,0.559,0.53,1.62,1.053c0.207,0.089,0.48,0.204,0.807,0.324c0.221,0.07,1.707,0.556,3.307,1.297l0.342,0.109
	c0.021,0.006,0.042,0.013,0.062,0.021c2.129,0.811,3.078,2.052,3.179,2.191c0.008,0.011,0.016,0.022,0.023,0.033
	c1.591,2.357,2.43,6.133,2.872,9.313c12.313-5.482,12.376-24.089,12.374-24.676c-0.014-0.354-0.313-7.048-2.26-9.991
	c-0.088-0.104-0.575-0.64-1.6-1.041c-0.051-0.016-0.153-0.048-0.291-0.092c-0.046-0.015-0.092-0.033-0.137-0.054
	c-1.245-0.585-2.453-0.968-2.465-0.972c-0.007-0.002-0.015-0.005-0.022-0.007c-0.323-0.109-0.607-0.228-0.818-0.319
	c-0.017-0.007-0.034-0.015-0.05-0.023c-1.387-0.68-2.147-1.343-2.393-2.085c-0.029-0.088-0.047-0.179-0.054-0.271
	c-0.273-0.417-0.243-0.977,0.097-1.363c0.994-1.128,1.695-2.548,1.924-3.895c0.039-0.227,0.146-0.436,0.307-0.6
	c0.063-0.064,0.179-0.227,0.241-0.585c0.006-0.034,0.014-0.068,0.022-0.102c0.213-0.79,0.202-1.219,0.172-1.365
	c-0.246-0.281-0.339-0.67-0.239-1.038c0.277-1.014,0.772-3.541-0.605-5.105c-0.014-0.016-0.028-0.033-0.041-0.05
	c-0.083-0.105-0.854-1.042-2.577-1.551c-0.017-0.005-0.033-0.01-0.05-0.016l-0.954-0.331c-1.201-0.371-2.047-0.509-2.332-0.549
	c-0.259,0.064-0.504,0.081-0.731,0.048c-0.124,0.002-0.37,0.065-0.502,0.113c-0.385,0.163-2.792,1.255-3.521,3.493
	c-0.004,0.012-0.008,0.024-0.012,0.036c-0.016,0.043-0.381,1.095,0.09,3.908c0.067,0.401-0.087,0.806-0.401,1.061
	c-0.029,0.179-0.017,0.639,0.18,1.331c0.013,0.045,0.022,0.091,0.03,0.137c0.039,0.251,0.122,0.45,0.239,0.575
	c0.159,0.167,0.262,0.38,0.296,0.608c0.203,1.36,0.874,2.786,1.841,3.911c0.387,0.451,0.358,1.125-0.066,1.54
	c-0.011,0.011-0.02,0.02-0.025,0.027l0,0.001c-0.251,0.791-1.038,1.454-2.629,2.216c-0.291,0.139-0.626,0.147-0.923,0.023
	s-0.526-0.37-0.63-0.674c-0.313-0.91-0.603-1.553-0.912-2.018c-0.081-0.098-0.563-0.639-1.589-1.041
	c-0.056-0.017-0.162-0.05-0.3-0.094c-0.047-0.015-0.094-0.033-0.139-0.055c-1.244-0.588-2.448-0.972-2.459-0.975
	c-0.007-0.002-0.015-0.005-0.022-0.007c-0.319-0.108-0.591-0.223-0.81-0.316c-0.02-0.008-0.04-0.018-0.06-0.027
	c-1.38-0.681-2.14-1.342-2.389-2.083c-0.03-0.09-0.049-0.183-0.056-0.276c-0.274-0.417-0.243-0.977,0.097-1.363
	c0.998-1.133,1.699-2.551,1.923-3.891c0.039-0.231,0.149-0.445,0.314-0.61c0.038-0.038,0.167-0.192,0.234-0.578
	c0.006-0.039,0.015-0.077,0.026-0.115c0.203-0.719,0.207-1.188,0.174-1.351c-0.246-0.28-0.34-0.669-0.239-1.04
	c0.276-1.014,0.772-3.541-0.601-5.101c-0.014-0.017-0.028-0.033-0.042-0.05c-0.083-0.105-0.857-1.046-2.58-1.554
	c-0.017-0.005-0.033-0.01-0.05-0.016l-0.955-0.331c-1.203-0.372-2.048-0.51-2.326-0.548c-0.235,0.058-0.498,0.078-0.727,0.049
	c-0.119,0.001-0.354,0.058-0.518,0.114c-0.405,0.172-2.791,1.266-3.515,3.49c-0.004,0.012-0.008,0.024-0.012,0.036
	c-0.016,0.043-0.381,1.095,0.086,3.91c0.066,0.398-0.085,0.8-0.396,1.055c-0.026,0.16-0.029,0.593,0.177,1.337
	c0.012,0.043,0.021,0.087,0.028,0.132c0.039,0.254,0.119,0.444,0.247,0.582c0.155,0.167,0.256,0.377,0.289,0.603
	c0.2,1.359,0.87,2.783,1.839,3.907c0.392,0.454,0.359,1.135-0.073,1.55c-0.008,0.008-0.015,0.014-0.019,0.019
	c-0.003,0.009-0.006,0.017-0.009,0.025c-0.303,0.919-1.36,1.699-3.527,2.602c-1.232,0.513-2.403,0.882-2.644,0.957
	c-1.032,0.406-1.516,0.945-1.598,1.043c-0.299,0.448-0.572,1.047-0.883,1.935c-0.107,0.307-0.342,0.553-0.645,0.674
	c-0.247,0.099-0.52,0.107-0.77,0.025c-0.062-0.019-0.121-0.043-0.179-0.072c-1.375-0.678-2.134-1.34-2.383-2.08
	c-0.03-0.09-0.049-0.183-0.056-0.277c-0.273-0.417-0.243-0.976,0.097-1.362c0.994-1.128,1.695-2.548,1.924-3.895
	c0.039-0.227,0.146-0.436,0.307-0.601c0.063-0.064,0.179-0.227,0.241-0.585c0.006-0.039,0.015-0.077,0.026-0.114
	c0.207-0.734,0.207-1.208,0.171-1.363c-0.242-0.281-0.332-0.667-0.232-1.032c0.276-1.014,0.771-3.541-0.605-5.105
	c-0.009-0.01-0.017-0.02-0.025-0.029c-0.204-0.248-0.993-1.093-2.595-1.562c-0.017-0.005-0.034-0.01-0.051-0.016l-0.96-0.331
	c-1.213-0.375-2.058-0.512-2.331-0.549c-0.185,0.044-0.475,0.081-0.73,0.044c-0.105,0.001-0.344,0.059-0.505,0.114
	c-0.487,0.21-2.808,1.313-3.52,3.497c-0.005,0.016-0.011,0.031-0.017,0.046c-0.016,0.042-0.38,1.061,0.094,3.897
	c0.067,0.4-0.086,0.803-0.396,1.057c-0.027,0.159-0.033,0.594,0.173,1.343c0.011,0.04,0.02,0.08,0.026,0.121
	c0.052,0.326,0.158,0.493,0.238,0.575c0.162,0.168,0.268,0.382,0.302,0.613c0.208,1.363,0.88,2.79,1.846,3.914
	c0.387,0.451,0.358,1.124-0.066,1.54c-0.015,0.015-0.025,0.026-0.033,0.035c-0.005,0.014-0.011,0.029-0.017,0.043
	c-0.304,0.901-1.362,1.677-3.521,2.577c-1.233,0.514-2.406,0.884-2.643,0.957c-1.027,0.401-1.517,0.943-1.604,1.046
	C178.626,86.14,178.081,91.645,178.006,93.621z"/>
<path fill="#338CA2" stroke="#338CA2" stroke-miterlimit="10" d="M371.321,41.176c6.524,0,12.852,1.277,18.808,3.797
	c5.754,2.434,10.922,5.918,15.359,10.356s7.923,9.606,10.355,15.36c2.52,5.956,3.797,12.284,3.797,18.808
	c0,6.524-1.277,12.852-3.797,18.808c-2.433,5.754-5.918,10.921-10.355,15.36c-4.438,4.438-9.605,7.922-15.359,10.356
	c-5.956,2.52-12.284,3.796-18.808,3.796s-12.852-1.277-18.808-3.796c-5.753-2.434-10.921-5.918-15.359-10.356
	c-4.438-4.438-7.922-9.606-10.356-15.36c-2.52-5.956-3.797-12.284-3.797-18.808c0-6.524,1.277-12.852,3.797-18.808
	c2.434-5.754,5.918-10.922,10.356-15.36s9.606-7.922,15.359-10.356C358.47,42.454,364.797,41.176,371.321,41.176 M371.321,39.497
	c-27.614,0-50,22.386-50,50c0,27.615,22.386,50,50,50c27.615,0,50-22.386,50-50C421.321,61.882,398.936,39.497,371.321,39.497
	L371.321,39.497z"/>
<path fill-rule="evenodd" clip-rule="evenodd" fill="#F79421" d="M368.46,56.739c1.914,0,3.828,0,5.742,0
	c7.436,0.647,14.94,2.003,20.099,5.481c1.895,1.277,3.962,3.447,4.829,5.873c0.799,2.234,0.261,7.213,0.261,10.571
	c0,7.275,0,14.234,0,21.404c0,3.414,0.605,8.469-0.391,11.224c-1.498,4.139-6.269,6.722-10.311,8.222
	c-4.957,1.84-9.999,2.314-15.792,2.741c-1.044,0-2.088,0-3.132,0c-5.524-0.32-10.87-0.957-15.922-2.871
	c-4.23-1.602-8.757-4.064-10.18-8.222c-0.861-2.517-0.391-7.571-0.391-11.093c0-7.128,0-14.105,0-21.143
	c0-3.44-0.533-7.576,0.13-10.441c1.078-4.654,6.439-7.445,10.31-8.875C358.484,57.848,362.959,57.225,368.46,56.739z M355.54,61.829
	c-3.511,1.2-9.588,3.842-9.527,8.222c0.038,2.752,1.997,4.25,3.785,5.481c8.604,5.924,25.453,6.845,37.065,3.001
	c3.729-1.234,9.556-3.891,9.788-8.091c0.145-2.625-1.813-4.468-3.654-5.743c-5.28-3.655-13.715-5.238-21.795-5.22
	C365.149,59.493,360.62,60.093,355.54,61.829z M346.013,76.054c-0.007-0.137-0.167-0.103-0.131,0.13
	c0.206,2.484-0.417,6.786,0.392,9.005c1.184,3.25,6.289,5.711,10.18,6.917c9.326,2.891,20.601,2.782,29.756-0.13
	c3.981-1.266,8.936-3.368,10.18-6.787c0.938-2.572,0.089-6.45,0.393-9.136C386.651,85.69,356.467,86.102,346.013,76.054z
	 M345.882,89.758c-0.186,4.046-0.198,8.768,1.697,10.833c6.891,7.507,27.42,8.551,39.284,4.568c3.976-1.335,8.444-3.467,9.526-6.787
	c0.762-2.33,0.23-6.165,0.393-8.874c-1.541,0.998-2.99,2.182-4.829,3.132c-12.536,6.475-37.003,5.474-45.94-3.263
	C345.86,89.388,345.871,89.573,345.882,89.758z M346.013,102.809c-0.007-0.137-0.167-0.103-0.131,0.13
	c0.142,2.12-0.33,5.812,0.392,7.7c0.168,0.44,0.733,1.315,1.175,1.827c2.016,2.339,6.142,4.237,10.049,5.351
	c12.053,3.438,31.468,1.9,37.718-5.351c1.688-1.958,1.782-6.237,1.566-9.658C386.563,112.405,356.554,112.816,346.013,102.809z"/>
<path fill="#338CA2" stroke="#338CA2" stroke-miterlimit="10" d="M531.649,41.521c6.523,0,12.852,1.277,18.807,3.797
	c5.754,2.434,10.922,5.918,15.36,10.356s7.923,9.606,10.356,15.36c2.52,5.956,3.797,12.284,3.797,18.808
	c0,6.524-1.277,12.852-3.797,18.808c-2.434,5.754-5.918,10.921-10.356,15.36c-4.438,4.438-9.606,7.922-15.36,10.356
	c-5.955,2.52-12.283,3.796-18.807,3.796c-6.524,0-12.852-1.277-18.809-3.796c-5.754-2.434-10.922-5.918-15.359-10.356
	c-4.438-4.438-7.922-9.606-10.355-15.36c-2.52-5.956-3.797-12.284-3.797-18.808c0-6.524,1.277-12.852,3.797-18.808
	c2.434-5.754,5.918-10.922,10.355-15.36s9.605-7.922,15.359-10.356C518.797,42.798,525.125,41.521,531.649,41.521 M531.649,39.841
	c-27.615,0-50,22.386-50,50c0,27.615,22.385,50,50,50c27.613,0,50-22.386,50-50C581.649,62.227,559.262,39.841,531.649,39.841
	L531.649,39.841z"/>
<path fill="#F79523" d="M539.842,72.364c3.934,0,7.133-3.2,7.133-7.132s-3.199-7.132-7.133-7.132c-3.932,0-7.132,3.199-7.132,7.132
	S535.911,72.364,539.842,72.364z M539.842,60.456c2.634,0,4.776,2.142,4.776,4.775s-2.143,4.776-4.776,4.776
	c-2.633,0-4.775-2.143-4.775-4.776S537.209,60.456,539.842,60.456z"/>
<path fill="#F79523" d="M523.436,88.77c3.934,0,7.133-3.2,7.133-7.132s-3.199-7.132-7.133-7.132c-3.932,0-7.132,3.199-7.132,7.132
	S519.504,88.77,523.436,88.77z M523.436,76.862c2.634,0,4.775,2.142,4.775,4.775s-2.142,4.776-4.775,4.776
	c-2.633,0-4.775-2.143-4.775-4.776S520.803,76.862,523.436,76.862z"/>
<path fill="#F79523" d="M556.254,88.77c3.933,0,7.132-3.2,7.132-7.132s-3.199-7.132-7.132-7.132s-7.132,3.199-7.132,7.132
	S552.322,88.77,556.254,88.77z M556.254,76.862c2.633,0,4.775,2.142,4.775,4.775s-2.143,4.776-4.775,4.776s-4.775-2.143-4.775-4.776
	S553.622,76.862,556.254,76.862z"/>
<path fill="#F79523" d="M507.043,88.77c3.932,0,7.131-3.2,7.131-7.132s-3.199-7.132-7.131-7.132c-3.934,0-7.133,3.199-7.133,7.132
	S503.11,88.77,507.043,88.77z M507.043,76.862c2.633,0,4.775,2.142,4.775,4.775s-2.143,4.776-4.775,4.776
	c-2.634,0-4.776-2.143-4.776-4.776S504.41,76.862,507.043,76.862z"/>
<path fill="#F79523" d="M523.436,105.176c3.934,0,7.133-3.2,7.133-7.132s-3.199-7.132-7.133-7.132c-3.932,0-7.132,3.199-7.132,7.132
	S519.504,105.176,523.436,105.176z M523.436,93.268c2.634,0,4.775,2.143,4.775,4.776s-2.142,4.776-4.775,4.776
	c-2.633,0-4.775-2.143-4.775-4.776S520.803,93.268,523.436,93.268z"/>
<path fill="#F79523" d="M556.254,90.912c-1.5,0-2.928,0.458-4.141,1.326l-6.465-6.46c0.869-1.213,1.326-2.64,1.326-4.14
	c0-3.933-3.199-7.132-7.133-7.132c-1.488,0-2.906,0.451-4.114,1.307l-6.384-6.586c0.801-1.183,1.225-2.559,1.225-3.995
	c0-3.933-3.199-7.132-7.133-7.132c-3.932,0-7.132,3.199-7.132,7.132s3.2,7.132,7.132,7.132c1.541,0,3.053-0.506,4.281-1.43
	l6.338,6.538c-0.88,1.219-1.344,2.655-1.344,4.166c0,3.933,3.199,7.132,7.131,7.132c1.502,0,2.928-0.458,4.141-1.326l6.465,6.46
	c-0.867,1.213-1.325,2.64-1.325,4.14c0,1.5,0.458,2.927,1.325,4.14l-6.465,6.46c-1.213-0.868-2.639-1.326-4.141-1.326
	c-3.932,0-7.131,3.199-7.131,7.132c0,3.933,3.199,7.132,7.131,7.132c3.934,0,7.133-3.199,7.133-7.132c0-1.5-0.457-2.927-1.326-4.14
	l6.465-6.46c1.213,0.868,2.641,1.326,4.141,1.326c3.933,0,7.132-3.2,7.132-7.132S560.187,90.912,556.254,90.912z M539.842,119.226
	c-2.633,0-4.775-2.142-4.775-4.775c0-2.634,2.143-4.776,4.775-4.776c2.634,0,4.776,2.143,4.776,4.776
	C544.619,117.084,542.476,119.226,539.842,119.226z M523.436,70.007c-2.633,0-4.775-2.143-4.775-4.776s2.143-4.775,4.775-4.775
	c2.634,0,4.775,2.142,4.775,4.775S526.07,70.007,523.436,70.007z M539.842,86.414c-2.633,0-4.775-2.143-4.775-4.776
	s2.143-4.775,4.775-4.775c2.634,0,4.776,2.142,4.776,4.775S542.476,86.414,539.842,86.414z M556.254,102.82
	c-2.633,0-4.775-2.143-4.775-4.776s2.143-4.776,4.775-4.776s4.775,2.143,4.775,4.776S558.887,102.82,556.254,102.82z"/>
<path fill="#F79523" d="M535.703,103.851c1.213,0.868,2.64,1.326,4.14,1.326c3.934,0,7.133-3.2,7.133-7.132
	s-3.199-7.132-7.133-7.132c-3.932,0-7.131,3.199-7.131,7.132c0,1.5,0.457,2.927,1.324,4.141l-6.459,6.459
	c-1.213-0.868-2.64-1.326-4.141-1.326c-1.5,0-2.926,0.457-4.139,1.325l-6.449-6.458c0.869-1.213,1.326-2.64,1.326-4.141
	c0-3.933-3.199-7.132-7.131-7.132c-3.934,0-7.133,3.199-7.133,7.132s3.199,7.132,7.133,7.132c1.5,0,2.926-0.458,4.139-1.325
	l6.448,6.458c-0.868,1.213-1.326,2.64-1.326,4.141c0,3.933,3.2,7.132,7.132,7.132c3.934,0,7.133-3.199,7.133-7.132
	c0-1.5-0.458-2.927-1.326-4.141L535.703,103.851z M507.043,102.82c-2.634,0-4.776-2.143-4.776-4.776s2.143-4.776,4.776-4.776
	c2.633,0,4.775,2.143,4.775,4.776S509.676,102.82,507.043,102.82z M523.436,119.226c-2.633,0-4.775-2.142-4.775-4.775
	c0-2.634,2.143-4.776,4.775-4.776c2.634,0,4.775,2.143,4.775,4.776C528.211,117.084,526.07,119.226,523.436,119.226z
	 M539.842,93.268c2.634,0,4.776,2.143,4.776,4.776s-2.143,4.776-4.776,4.776c-2.633,0-4.775-2.143-4.775-4.776
	S537.209,93.268,539.842,93.268z"/>
<path fill="#338CA2" stroke="#338CA2" stroke-miterlimit="10" d="M692.135,41.521c6.523,0,12.852,1.277,18.809,3.797
	c5.753,2.434,10.921,5.918,15.359,10.356c4.438,4.438,7.922,9.606,10.355,15.36c2.52,5.956,3.797,12.284,3.797,18.808
	s-1.277,12.852-3.797,18.808c-2.434,5.754-5.918,10.921-10.355,15.36c-4.438,4.438-9.606,7.922-15.359,10.356
	c-5.957,2.519-12.285,3.796-18.809,3.796s-12.852-1.277-18.809-3.796c-5.753-2.434-10.921-5.918-15.359-10.356
	c-4.438-4.438-7.922-9.606-10.355-15.36c-2.52-5.956-3.797-12.284-3.797-18.808s1.277-12.852,3.797-18.808
	c2.434-5.754,5.918-10.922,10.355-15.36c4.438-4.438,9.606-7.922,15.359-10.356C679.284,42.798,685.612,41.521,692.135,41.521
	 M692.135,39.841c-27.614,0-50,22.386-50,50c0,27.615,22.386,50,50,50s50-22.386,50-50C742.135,62.227,719.75,39.841,692.135,39.841
	L692.135,39.841z"/>
<path fill="none" d="M681.922,101.218c-0.281-0.764-1.027-2.504-2.031-2.507l-0.03,0c-1.087,0.027-2.327,1.776-2.522,2.844
	c0.158,2.244,0.23,6.332-0.951,9.29l0.051,0.021l-0.16,0.624c-0.084,0.262-0.059,0.464,0.08,0.655
	c0.271,0.373,0.928,0.644,1.561,0.644c0.119,0,0.414-0.013,0.689-0.128c2.902-3.719,3.275-9.599,3.318-11.43L681.922,101.218z"/>
<path fill="none" d="M689.801,101.937c-0.195-1.108-0.766-2.937-2.398-2.938h-0.037c-1.288,0.019-2.816,1.164-3.221,2.412
	c-0.053,2.156-0.455,7.415-2.996,11.481l0.063,0.03l-0.131,0.281c-0.015,0.031-0.088,0.196-0.088,0.196l-0.025,0.053
	c-0.621,1.204-0.672,1.909-0.513,2.17c0.063,0.105,0.372,0.448,1.646,0.448c0.667,0,1.317-0.101,1.696-0.172
	c0.032-0.033,0.065-0.065,0.1-0.096l0.209-0.189l0.05,0.044c1.688-1.446,3.56-5.002,4.429-6.949
	C689.796,105.314,689.807,102.369,689.801,101.937z"/>
<path fill="none" d="M691.204,110.924c-0.348,0-0.731,0.1-1.141,0.297l-0.544,0.743l-0.046-0.028
	c-1.02,1.923-2.516,4.344-4.125,5.605l-0.107,0.15c-0.014,0.415,0.023,1.249,0.484,1.774c0.335,0.383,0.875,0.551,1.645,0.519
	c0.689-0.475,3.373-2.457,4.925-5.56l0.144-0.29c0,0,0.701-1.103,0.551-1.647C692.79,111.767,692.202,110.924,691.204,110.924z"/>
<path fill="none" d="M675.109,101.571c-0.184-1.346-0.675-2.028-1.46-2.028c-0.721,0-1.508,0.505-1.766,0.958
	c-0.012,0.021-0.021,0.04-0.027,0.056l0.104,0.173v0.308c0,2.46-0.336,8.156-0.381,8.919c0.027,0.265,0.129,0.958,1.227,0.958
	c0.559,0,1.022-0.189,1.292-0.379c1.264-2.471,1.185-6.621,1.021-8.893L675.109,101.571z"/>
<path fill="none" d="M716.448,101.987c-2.028-3.569-4.084-6.261-5.648-8.208l-6.402-7.658c-0.076-0.066-0.279-0.238-0.572-0.451
	l-1.025-0.645c-0.76-0.404-1.455-0.608-2.068-0.608c-1.04,0-1.848,0.652-2.471,1.993l-0.018,0.038l-2.666,5.103
	c-0.945,1.323-2.66,2.145-4.477,2.145c-1.674,0-3.152-0.693-4.059-1.901c-0.742-0.992-1.447-2.797-0.578-5.765l0.041-0.115
	l3.76-9.025c-2.132-2.257-4.164-3.402-6.041-3.402c-3.81,0-6.122,4.822-6.145,4.871l-0.069,0.148l-0.11,0.123
	c-2.084,2.325-4.252,2.813-5.704,2.813c-1.804,0-3.073-0.742-3.127-0.773l-0.028-0.017c-3.352-2.146-8.647-5.152-10.424-5.437
	c-3.217,7.359-2.83,19.393-1.524,21.166c0.203-0.021,0.571-0.039,1.301-0.039c1.21,0,2.854,0.05,3.942,0.083
	c0.504,0.015,0.902,0.027,1.033,0.027c1.26,0,1.994,0.118,3.283,0.847c0.8,0.452,1.87,1.057,3.488,1.824
	c0.752-1.055,2.18-1.797,3.51-1.797c0.647,0,1.799,0.179,2.664,1.3c0.967-1.312,2.247-2.101,3.494-2.132l0.077-0.001
	c0.927,0,2.229,0.405,3.332,2.265c1.098-1.192,2.671-1.955,4.121-1.976h0.063c1.14,0,3.87,0.474,4.603,4.866l0.014,0.138
	c0.006,0.133,0.111,3.178-1.091,6.931c0.094-0.006,0.187-0.009,0.278-0.009c2.1,0,3.482,1.602,3.922,3.189
	c0.118,0.425,0.175,0.848,0.17,1.261c0.697,0.341,1.48,0.52,2.274,0.52c0.585,0,2.487-0.124,2.886-1.687l-5.537-8.716l1.872-1.189
	l5.646,8.888c1.231,0.928,2.535,1.438,3.676,1.438c1.7,0,2.73-1.103,2.912-3.107l-8.758-12.654l1.824-1.262l8.81,12.732
	c0.789,0.457,1.59,0.689,2.381,0.689c1.508,0,2.891-0.857,3.61-2.235c0.747-1.435,0.604-3.08-0.396-4.512L716.448,101.987z"/>
<path fill="none" d="M726.554,76.749c-0.031,0-0.063-0.001-0.095-0.001c-3.782,0-11.4,4.087-11.928,4.373
	c-0.381,0.274-0.83,0.419-1.303,0.419c-1.264,0-2.347-1.046-2.466-1.166l-0.062-0.067c-3.572-4.324-7.182-6.51-10.736-6.51
	c-4.081,0-6.904,2.916-7.512,3.602l-3.879,9.309c-0.465,1.625-0.381,2.924,0.242,3.755c0.482,0.644,1.314,1.013,2.283,1.013
	c1.061,0,2.091-0.454,2.631-1.159l2.532-4.871c1.251-2.682,3.121-3.248,4.468-3.248c2.666,0,5.114,2.239,5.217,2.334l0.098,0.103
	l9.814,11.739c0.479,0.022,0.939,0.033,1.368,0.033c2.071,0,5.717-0.257,6.235-0.335c6.395-4.6,4.371-13.565,3.397-17.879
	C726.729,77.61,726.62,77.125,726.554,76.749z"/>
<path fill="#F79421" d="M728.86,76.345c-0.037-0.168-0.365-1.477-0.365-1.477l-0.685-0.18c-0.398-0.105-0.853-0.158-1.351-0.158
	c-4.521,0-12.719,4.493-13.065,4.685l-0.136,0.089l-0.029,0.018c-0.207,0-0.611-0.25-0.868-0.487
	c-3.991-4.814-8.162-7.255-12.396-7.255c-3.947,0-6.854,2.104-8.354,3.509c-2.481-2.535-4.966-3.82-7.389-3.82
	c-4.805,0-7.528,4.897-8.077,5.992c-1.207,1.302-2.536,1.963-3.951,1.963c-1.085,0-1.867-0.394-1.99-0.46
	c-1.535-0.982-9.187-5.789-11.826-5.789c-1.05,0-1.46,0.627-1.589,0.897c-1.676,3.523-2.816,8.322-3.132,13.167
	c-0.298,4.584,0.188,8.373,1.3,10.132c0.657,1.04,1.225,1.483,1.896,1.483c0.043,0,4.07-0.002,4.604-0.023v0.002
	c0.002,0,0.085-0.002,0.229-0.002c0.66,0,2.891,0.043,3.873,0.599c0.918,0.519,2.166,1.225,4.181,2.155
	c-0.03,2.708-0.376,8.463-0.38,8.522l-0.005,0.075l0.006,0.075c0.141,1.869,1.492,3.076,3.444,3.076c0.49,0,0.984-0.078,1.446-0.227
	c0.084,0.19,0.188,0.373,0.314,0.545c0.688,0.945,2.005,1.555,3.353,1.555c0.082,0,0.166-0.002,0.248-0.007
	c-0.049,0.672,0.084,1.268,0.395,1.777c0.609,1.004,1.801,1.513,3.54,1.513c0.298,0,0.612-0.015,0.937-0.044
	c0.057,0.816,0.292,1.847,1.01,2.673c0.743,0.855,1.803,1.29,3.15,1.29c0.21,0,0.428-0.011,0.645-0.032l0.254-0.024l0.22-0.134
	c0.151-0.093,3.71-2.303,5.831-6.345c0.152-0.12,0.293-0.256,0.419-0.409c0.94,0.414,1.974,0.632,3.004,0.632
	c2.118,0,3.831-0.892,4.657-2.402c1.297,0.745,2.633,1.137,3.885,1.137c2.451,0,4.313-1.522,4.933-4
	c0.733,0.264,1.484,0.397,2.237,0.397c2.336-0.001,4.473-1.314,5.575-3.428c1.117-2.143,0.925-4.67-0.515-6.762
	c-0.426-0.75-0.862-1.478-1.324-2.211c0.071,0.001,0.141,0.001,0.21,0.001c2.868,0,7.218-0.599,7.261-0.604l0.076-0.011l0.062-0.043
	C732.518,92.427,730.252,82.53,728.86,76.345z M674.097,110.536c-0.27,0.19-0.733,0.379-1.292,0.379
	c-1.098,0-1.199-0.693-1.227-0.958c0.045-0.763,0.381-6.459,0.381-8.919v-0.308l-0.104-0.173c0.007-0.016,0.016-0.035,0.027-0.056
	c0.258-0.453,1.045-0.958,1.766-0.958c0.785,0,1.276,0.683,1.46,2.028l0.009,0.071C675.282,103.915,675.361,108.064,674.097,110.536
	z M678.608,112.66c-0.275,0.115-0.57,0.128-0.689,0.128c-0.633,0-1.289-0.271-1.561-0.644c-0.139-0.191-0.164-0.393-0.08-0.655
	l0.16-0.624l-0.051-0.021c1.182-2.958,1.109-7.046,0.951-9.29c0.195-1.068,1.436-2.817,2.522-2.844l0.03,0
	c1.004,0.003,1.75,1.744,2.031,2.507l0.004,0.012C681.883,103.061,681.51,108.94,678.608,112.66z M684.156,115.657l-0.05-0.044
	l-0.209,0.189c-0.034,0.031-0.067,0.063-0.1,0.096c-0.379,0.071-1.029,0.172-1.696,0.172c-1.274,0-1.583-0.343-1.646-0.448
	c-0.159-0.261-0.108-0.966,0.513-2.17l0.025-0.053c0,0,0.073-0.165,0.088-0.196l0.131-0.281l-0.063-0.03
	c2.541-4.066,2.943-9.325,2.996-11.481c0.404-1.248,1.933-2.393,3.221-2.412h0.037c1.633,0,2.203,1.829,2.398,2.938
	c0.006,0.432-0.005,3.377-1.217,6.771C687.715,110.655,685.844,114.211,684.156,115.657z M692.438,114.136l-0.144,0.29
	c-1.552,3.103-4.235,5.085-4.925,5.56c-0.77,0.033-1.31-0.136-1.645-0.519c-0.461-0.526-0.498-1.36-0.484-1.774l0.107-0.15
	c1.609-1.261,3.105-3.682,4.125-5.605l0.046,0.028l0.544-0.743c0.409-0.197,0.793-0.297,1.141-0.297
	c0.998,0,1.586,0.842,1.785,1.564C693.139,113.033,692.438,114.136,692.438,114.136z M716.891,106.574
	c-0.72,1.378-2.103,2.235-3.61,2.235c-0.791,0-1.592-0.232-2.381-0.689l-8.81-12.732l-1.824,1.262l8.758,12.654
	c-0.182,2.005-1.212,3.107-2.912,3.107c-1.141,0-2.444-0.51-3.676-1.438l-5.646-8.888l-1.872,1.189l5.537,8.716
	c-0.398,1.563-2.301,1.687-2.886,1.687c-0.794,0-1.577-0.179-2.274-0.52c0.005-0.413-0.052-0.836-0.17-1.261
	c-0.439-1.588-1.822-3.189-3.922-3.189c-0.092,0-0.185,0.003-0.278,0.009c1.202-3.752,1.097-6.798,1.091-6.931l-0.014-0.138
	c-0.732-4.392-3.463-4.866-4.603-4.866h-0.063c-1.45,0.021-3.023,0.784-4.121,1.976c-1.103-1.859-2.405-2.265-3.332-2.265
	l-0.077,0.001c-1.247,0.031-2.527,0.82-3.494,2.132c-0.865-1.121-2.017-1.3-2.664-1.3c-1.33,0-2.758,0.742-3.51,1.797
	c-1.618-0.767-2.688-1.372-3.488-1.824c-1.289-0.729-2.023-0.847-3.283-0.847c-0.131,0-0.529-0.012-1.033-0.027
	c-1.088-0.033-2.732-0.083-3.942-0.083c-0.729,0-1.098,0.018-1.301,0.039c-1.306-1.773-1.692-13.807,1.524-21.166
	c1.776,0.285,7.072,3.29,10.424,5.437l0.028,0.017c0.054,0.031,1.323,0.773,3.127,0.773c1.452,0,3.62-0.488,5.704-2.813l0.11-0.123
	l0.069-0.148c0.022-0.049,2.335-4.871,6.145-4.871c1.877,0,3.909,1.145,6.041,3.402l-3.76,9.025l-0.041,0.115
	c-0.869,2.968-0.164,4.773,0.578,5.765c0.906,1.208,2.385,1.901,4.059,1.901c1.816,0,3.531-0.822,4.477-2.145l2.666-5.103
	l0.018-0.038c0.623-1.341,1.431-1.993,2.471-1.993c0.613,0,1.309,0.205,2.068,0.608l1.025,0.645
	c0.293,0.212,0.496,0.384,0.572,0.451l6.402,7.658c1.564,1.948,3.62,4.64,5.648,8.208l0.047,0.074
	C717.495,103.494,717.638,105.139,716.891,106.574z M723.463,96.073c-0.519,0.078-4.164,0.335-6.235,0.335
	c-0.429,0-0.889-0.011-1.368-0.033l-9.814-11.739l-0.098-0.103c-0.103-0.095-2.551-2.334-5.217-2.334
	c-1.347,0-3.217,0.565-4.468,3.248l-2.532,4.871c-0.54,0.705-1.57,1.159-2.631,1.159c-0.969,0-1.801-0.369-2.283-1.013
	c-0.623-0.832-0.707-2.13-0.242-3.755l3.879-9.309c0.607-0.686,3.431-3.602,7.512-3.602c3.555,0,7.164,2.187,10.736,6.51
	l0.062,0.067c0.119,0.12,1.202,1.166,2.466,1.166c0.473,0,0.922-0.145,1.303-0.419c0.527-0.286,8.146-4.373,11.928-4.373
	c0.032,0,0.063,0,0.095,0.001c0.065,0.375,0.175,0.861,0.307,1.445C727.834,82.508,729.858,91.474,723.463,96.073z"/>
<rect x="100.001" y="89.035" fill="#338CA2" width="61.078" height="1.613"/>
<rect x="421" y="89.035" fill="#338CA2" width="61.078" height="1.613"/>
<rect x="260.001" y="89.035" fill="#338CA2" width="62.001" height="1.613"/>
<rect x="581" y="89.035" fill="#338CA2" width="61.078" height="1.613"/>
<rect x="49.693" y="149.802" fill="#F79622" width="1.613" height="27.027"/>
<rect x="210.001" y="149.589" fill="#F79622" width="1.613" height="116.247"/>
<rect x="370.515" y="148.969" fill="#F79622" width="1.613" height="27.027"/>
<rect x="529.762" y="149.467" fill="#F79622" width="1.613" height="116.248"/>
<rect x="691.329" y="149.719" fill="#F79622" width="1.612" height="27.027"/>
<path fill="#F7941D" d="M42.438,0.5c1.53,0,2.772,0.29,3.724,0.868c2.016,1.195,3.024,4.182,3.024,8.96
	c0,3.379-0.56,5.764-1.68,7.154c-1.12,1.391-2.8,2.086-5.04,2.086c-2.24,0-3.925-0.686-5.054-2.058
	c-1.13-1.372-1.694-3.817-1.694-7.336s0.555-6.011,1.666-7.476C38.495,1.233,40.18,0.5,42.438,0.5z M42.466,2.432
	c-1.064,0-1.904,0.224-2.52,0.672c-1.326,0.915-1.988,3.332-1.988,7.252c0,2.763,0.364,4.672,1.092,5.726
	c0.728,1.055,1.867,1.582,3.416,1.582s2.688-0.532,3.416-1.596c0.728-1.064,1.092-3.038,1.092-5.922c0-2.884-0.35-4.89-1.05-6.02
	C45.225,2.997,44.072,2.432,42.466,2.432z"/>
<path fill="#F7941D" d="M61.198,0.808v18.48h-2.156V3.216l-4.76,3.136l-0.98-1.624l5.88-3.92H61.198z"/>
<path fill="#F7941D" d="M202.94,0.25c1.53,0,2.772,0.29,3.724,0.868c2.016,1.195,3.024,4.182,3.024,8.96
	c0,3.379-0.56,5.764-1.68,7.154c-1.12,1.391-2.8,2.086-5.04,2.086c-2.24,0-3.925-0.686-5.054-2.058
	c-1.13-1.372-1.694-3.817-1.694-7.336s0.555-6.011,1.666-7.476C198.996,0.983,200.681,0.25,202.94,0.25z M202.968,2.182
	c-1.064,0-1.904,0.224-2.52,0.672c-1.326,0.915-1.988,3.332-1.988,7.252c0,2.763,0.364,4.672,1.092,5.726
	c0.728,1.055,1.867,1.582,3.416,1.582s2.688-0.532,3.416-1.596c0.728-1.064,1.092-3.038,1.092-5.922c0-2.884-0.35-4.89-1.05-6.02
	C205.726,2.747,204.573,2.182,202.968,2.182z"/>
<path fill="#F7941D" d="M224.556,19.038H212.74v-1.82l5.404-5.684c0.933-0.971,1.614-1.708,2.044-2.212
	c0.429-0.504,0.816-1.102,1.162-1.792c0.345-0.69,0.518-1.381,0.518-2.072c0-1.194-0.327-2.034-0.98-2.52
	c-0.654-0.485-1.671-0.728-3.052-0.728c-1.213,0-2.566,0.159-4.06,0.476l-0.728,0.14l-0.168-1.792
	c1.773-0.504,3.603-0.756,5.488-0.756c1.885,0,3.308,0.396,4.27,1.19c0.961,0.793,1.442,2.049,1.442,3.766
	c0,1.307-0.29,2.446-0.868,3.416c-0.579,0.971-1.578,2.138-2.996,3.5l-4.928,5.012h9.268V19.038z"/>
<path fill="#F7941D" d="M363.453,0.166c1.53,0,2.772,0.29,3.724,0.868c2.016,1.195,3.024,4.182,3.024,8.96
	c0,3.379-0.56,5.764-1.68,7.154c-1.12,1.391-2.8,2.086-5.04,2.086c-2.24,0-3.925-0.686-5.054-2.058
	c-1.13-1.372-1.694-3.817-1.694-7.336s0.555-6.011,1.666-7.476C359.509,0.899,361.194,0.166,363.453,0.166z M363.481,2.098
	c-1.064,0-1.904,0.224-2.52,0.672c-1.326,0.915-1.988,3.332-1.988,7.252c0,2.763,0.364,4.672,1.092,5.726
	c0.728,1.055,1.867,1.582,3.416,1.582s2.688-0.532,3.416-1.596c0.728-1.064,1.092-3.038,1.092-5.922c0-2.884-0.35-4.89-1.05-6.02
	C366.239,2.663,365.086,2.098,363.481,2.098z"/>
<path fill="#F7941D" d="M373.337,0.95c1.754-0.522,3.635-0.784,5.642-0.784c2.006,0,3.458,0.383,4.354,1.148
	c0.896,0.766,1.344,1.988,1.344,3.668c0,0.859-0.117,1.48-0.35,1.862c-0.233,0.383-0.42,0.677-0.56,0.882
	c-0.14,0.206-0.322,0.402-0.546,0.588c-0.411,0.318-0.737,0.542-0.98,0.672l-0.308,0.196c1.083,0.392,1.885,0.892,2.408,1.498
	c0.522,0.607,0.784,1.601,0.784,2.982c0,1.886-0.481,3.286-1.442,4.2s-2.478,1.372-4.55,1.372c-1.643,0-3.379-0.187-5.208-0.56
	l-0.868-0.196l0.196-1.764c2.016,0.411,3.901,0.616,5.656,0.616c2.669-0.019,4.004-1.213,4.004-3.584
	c0-2.221-1.27-3.378-3.808-3.472h-3.724V8.426h3.724c0.784,0,1.54-0.313,2.268-0.938c0.728-0.625,1.092-1.451,1.092-2.478
	c0-1.026-0.29-1.769-0.868-2.226c-0.579-0.457-1.549-0.686-2.912-0.686c-1.493,0-2.968,0.14-4.424,0.42l-0.728,0.14L373.337,0.95z"
	/>
<path fill="#F7941D" d="M522.702,0c1.529,0,2.771,0.29,3.724,0.868c2.016,1.195,3.024,4.182,3.024,8.96
	c0,3.379-0.561,5.764-1.681,7.154c-1.12,1.391-2.8,2.086-5.04,2.086s-3.925-0.686-5.054-2.058c-1.13-1.372-1.694-3.817-1.694-7.336
	s0.555-6.011,1.666-7.476C518.757,0.733,520.442,0,522.702,0z M522.729,1.932c-1.064,0-1.904,0.224-2.52,0.672
	c-1.326,0.915-1.988,3.332-1.988,7.252c0,2.763,0.363,4.672,1.092,5.726c0.729,1.055,1.867,1.582,3.416,1.582
	s2.688-0.532,3.416-1.596c0.729-1.064,1.092-3.038,1.092-5.922c0-2.884-0.35-4.89-1.05-6.02
	C525.487,2.497,524.334,1.932,522.729,1.932z"/>
<path fill="#F7941D" d="M540.649,18.788v-3.612h-8.96v-1.68l5.264-13.188h2.353l-5.348,12.964h6.691V7.504h2.156v5.768h2.352v1.904
	h-2.352v3.612H540.649z"/>
<path fill="#F7941D" d="M684.268,0c1.529,0,2.771,0.29,3.724,0.868c2.016,1.195,3.024,4.182,3.024,8.96
	c0,3.379-0.561,5.764-1.681,7.154c-1.12,1.391-2.8,2.086-5.04,2.086s-3.925-0.686-5.054-2.058c-1.13-1.372-1.694-3.817-1.694-7.336
	s0.555-6.011,1.666-7.476C680.324,0.733,682.008,0,684.268,0z M684.295,1.932c-1.064,0-1.904,0.224-2.52,0.672
	c-1.326,0.915-1.988,3.332-1.988,7.252c0,2.763,0.363,4.672,1.092,5.726c0.729,1.055,1.867,1.582,3.416,1.582
	s2.688-0.532,3.416-1.596c0.729-1.064,1.092-3.038,1.092-5.922c0-2.884-0.35-4.89-1.05-6.02
	C687.053,2.497,685.901,1.932,684.295,1.932z"/>
<path fill="#F7941D" d="M705.491,0.308v1.96h-8.987l-0.505,6.02c1.438-0.765,2.885-1.148,4.341-1.148c3.92,0,5.88,1.82,5.88,5.46
	c0,2.091-0.541,3.687-1.624,4.788c-1.083,1.102-2.604,1.652-4.563,1.652c-1.568,0-3.305-0.206-5.209-0.616l-0.924-0.196l0.252-1.708
	c2.146,0.411,3.953,0.616,5.418,0.616c1.466,0,2.572-0.378,3.318-1.134c0.746-0.756,1.12-1.815,1.12-3.178
	c0-1.362-0.341-2.329-1.022-2.898s-1.647-0.854-2.897-0.854c-0.673,0-1.377,0.093-2.114,0.28c-0.737,0.187-1.302,0.374-1.693,0.56
	l-0.588,0.28l-1.484-0.28l0.504-9.604H705.491z"/>
</svg>
