<?xml version="1.0" encoding="utf-8"?>
<!-- Generator: Adobe Illustrator 15.0.0, SVG Export Plug-In  -->
<!DOCTYPE svg PUBLIC "-//W3C//DTD SVG 1.1//EN" "http://www.w3.org/Graphics/SVG/1.1/DTD/svg11.dtd" [
	<!ENTITY ns_flows "http://ns.adobe.com/Flows/1.0/">
]>
<svg version="1.1"
	 xmlns="http://www.w3.org/2000/svg" xmlns:xlink="http://www.w3.org/1999/xlink" xmlns:a="http://ns.adobe.com/AdobeSVGViewerExtensions/3.0/"
	 x="0px" y="0px" width="595px" height="595px" viewBox="-82.43 -50.973 595 595" enable-background="new -82.43 -50.973 595 595"
	 xml:space="preserve">
<defs>
</defs>
<g>
	<path fill-rule="evenodd" clip-rule="evenodd" fill="#A8DDE7" d="M214.494,492.951c-0.259,0-0.518-0.067-0.75-0.201l-56.65-32.729
		c-0.464-0.268-0.75-0.763-0.75-1.299v-64.835c0-0.532,0.283-1.025,0.742-1.295l50.874-29.778v-51.159l-45.103-26.819
		l-45.686,25.584v58.922c0,0.533-0.283,1.026-0.743,1.295l-56.021,32.729c-0.234,0.137-0.495,0.205-0.757,0.205
		c-0.259,0-0.518-0.067-0.75-0.201L2.25,370.639c-0.464-0.268-0.75-0.763-0.75-1.299v-64.836c0-0.533,0.283-1.026,0.743-1.295
		l56.021-32.729c0.234-0.137,0.495-0.205,0.757-0.205c0.257,0,0.515,0.066,0.746,0.198l50.869,29.154l45.708-26.204v-51.781
		l-45.092-26.811l-50.856,29.146c-0.231,0.133-0.489,0.199-0.746,0.199c-0.259,0-0.518-0.067-0.75-0.201l-56.65-32.73
		c-0.464-0.268-0.75-0.763-0.75-1.299v-64.832c0-0.536,0.286-1.031,0.75-1.299l56.65-32.732c0.232-0.134,0.492-0.201,0.75-0.201
		c0.266,0,0.531,0.07,0.768,0.211l56.021,33.359c0.454,0.271,0.732,0.76,0.732,1.289v57.668l45.422,25.922l45.367-25.921v-51.782
		l-50.885-30.406c-0.453-0.271-0.73-0.76-0.73-1.288V35.731c0-0.539,0.289-1.037,0.757-1.303
		c0.377-0.215,37.882-21.592,55.979-32.706c0.236-0.145,0.508-0.222,0.785-0.222h0.628c0.266,0,0.527,0.071,0.757,0.205
		l56.021,32.731c0.46,0.269,0.743,0.762,0.743,1.295v64.834c0,0.533-0.282,1.025-0.742,1.294L220.4,131.637v51.791l45.093,26.811
		l45.694-26.197v-58.928c0-0.533,0.283-1.026,0.743-1.295l56.021-32.732c0.233-0.137,0.495-0.205,0.757-0.205
		c0.259,0,0.519,0.067,0.75,0.201l56.651,32.732c0.464,0.268,0.75,0.763,0.75,1.299v64.832c0,0.533-0.283,1.026-0.743,1.295
		l-56.021,32.73c-0.233,0.137-0.495,0.205-0.757,0.205c-0.258,0-0.515-0.066-0.746-0.199l-50.868-29.154l-45.71,26.204v51.782
		l45.094,26.81l50.854-29.146c0.231-0.132,0.488-0.198,0.746-0.198c0.259,0,0.519,0.067,0.75,0.201l56.651,32.729
		c0.464,0.268,0.75,0.763,0.75,1.299v64.836c0,0.533-0.283,1.026-0.743,1.295l-56.021,32.729c-0.233,0.137-0.495,0.205-0.757,0.205
		c-0.259,0-0.519-0.067-0.75-0.201l-56.651-32.729c-0.464-0.268-0.75-0.763-0.75-1.299v-58.307l-45.083-26.198L220.4,311.04v51.153
		l50.884,30.405c0.453,0.271,0.73,0.76,0.73,1.288v64.835c0,0.533-0.283,1.026-0.743,1.295l-56.021,32.729
		C215.017,492.882,214.755,492.951,214.494,492.951z M214.489,479.019l45.085-26.196v-53.028l-45.085-25.588L168.786,399.8v53.017
		L214.489,479.019z M369.334,389.637l45.084-26.196v-53.028l-45.084-25.588l-45.703,25.594v53.017L369.334,389.637z M59.645,389.637
		l45.084-26.196v-53.028l-45.084-25.588l-45.703,25.594v53.017L59.645,389.637z M214.489,300.256l45.085-26.197v-53.027
		l-45.085-25.588l-45.704,25.594v53.016L214.489,300.256z M369.334,210.244l45.084-26.196v-53.025l-45.084-25.588l-45.703,25.594
		v53.013L369.334,210.244z M59.645,210.244l45.084-26.196v-53.025l-45.084-25.588l-45.703,25.594v53.013L59.645,210.244z
		 M214.489,120.862l45.085-26.196V41.64l-45.085-25.588l-45.704,25.594V94.66L214.489,120.862z"/>
	<path fill="#A8DDE7" d="M214.494,3l56.021,32.731v64.834L218.9,130.777v53.504l46.579,27.695l47.208-27.064v-59.797l56.021-32.732
		l56.651,32.732v64.832l-56.021,32.73l-51.614-29.582l-47.21,27.064v53.504l46.58,27.693l51.614-29.581l56.651,32.729v64.836
		l-56.021,32.729l-56.651-32.729v-59.17l-46.578-27.067L218.9,310.17v52.874l51.614,30.842v64.835l-56.021,32.729l-56.65-32.729
		v-64.835l51.616-30.213V310.8l-46.581-27.697L115.67,309.54v59.801L59.65,402.069L3,369.34v-64.836l56.021-32.729l51.615,29.581
		l47.208-27.063v-53.504l-46.578-27.694L59.65,222.676L3,189.946v-64.832l56.65-32.732l56.021,33.359v58.54l46.923,26.778
		l46.866-26.778v-53.504l-51.616-30.842V35.731c0,0,37.694-21.476,56.022-32.731C214.074,3,214.494,3,214.494,3 M214.494,122.594
		l46.58-27.064V40.767l-46.58-26.437l-47.208,26.437v54.763L214.494,122.594 M369.339,211.976l46.579-27.064v-54.762l-46.579-26.437
		l-47.208,26.437v54.762L369.339,211.976 M59.65,211.976l46.579-27.064v-54.762L59.65,103.713l-47.208,26.437v54.762L59.65,211.976
		 M214.494,301.988l46.58-27.065v-54.764l-46.58-26.437l-47.208,26.437v54.764L214.494,301.988 M369.339,391.369l46.579-27.064
		V309.54l-46.579-26.437l-47.208,26.437v54.765L369.339,391.369 M59.65,391.369l46.579-27.064V309.54L59.65,283.103L12.442,309.54
		v54.765L59.65,391.369 M214.494,480.75l46.58-27.064v-54.765l-46.58-26.437l-47.208,26.437v54.765L214.494,480.75 M214.494,0
		h-0.628c-0.554,0-1.098,0.153-1.57,0.443c-18.076,11.101-55.561,32.466-55.937,32.681c-0.937,0.533-1.515,1.528-1.515,2.606v64.204
		c0,1.056,0.555,2.034,1.461,2.575l50.154,29.969v50.061l-43.867,25.065l-43.922-25.066v-56.797c0-1.057-0.557-2.037-1.465-2.578
		L61.185,89.804c-0.473-0.281-1.004-0.422-1.535-0.422c-0.518,0-1.036,0.134-1.501,0.402l-56.65,32.732
		C0.571,123.053,0,124.043,0,125.114v64.832c0,1.071,0.571,2.062,1.499,2.598l56.65,32.73c0.464,0.268,0.983,0.402,1.501,0.402
		c0.515,0,1.03-0.132,1.492-0.397l50.096-28.711l43.606,25.927v50.059l-44.208,25.344l-50.124-28.726
		c-0.462-0.266-0.977-0.397-1.492-0.397c-0.523,0-1.046,0.137-1.513,0.409L1.486,301.914C0.566,302.452,0,303.438,0,304.504v64.836
		c0,1.071,0.571,2.062,1.499,2.598l56.65,32.729c0.464,0.269,0.982,0.402,1.5,0.402c0.523,0,1.046-0.137,1.513-0.409l56.021-32.729
		c0.921-0.538,1.487-1.524,1.487-2.591v-58.042l44.164-24.731l43.625,25.939v49.447l-50.131,29.344
		c-0.919,0.538-1.484,1.523-1.484,2.589v64.835c0,1.071,0.571,2.062,1.499,2.598l56.65,32.729c0.464,0.269,0.983,0.402,1.501,0.402
		c0.523,0,1.046-0.137,1.513-0.41l56.021-32.729c0.92-0.538,1.486-1.524,1.486-2.591v-64.835c0-1.056-0.555-2.034-1.461-2.575
		L221.9,361.342v-49.434l44.199-25.342l43.588,25.33v57.443c0,1.071,0.571,2.062,1.499,2.598l56.651,32.729
		c0.465,0.269,0.982,0.402,1.501,0.402c0.523,0,1.046-0.137,1.514-0.409l56.021-32.729c0.92-0.538,1.486-1.524,1.486-2.591v-64.836
		c0-1.071-0.571-2.062-1.499-2.598l-56.651-32.729c-0.465-0.269-0.982-0.402-1.501-0.402c-0.515,0-1.029,0.133-1.492,0.397
		l-50.095,28.71l-43.607-25.926v-50.06l44.21-25.344l50.122,28.727c0.463,0.265,0.978,0.397,1.492,0.397
		c0.523,0,1.046-0.137,1.514-0.41l56.021-32.73c0.921-0.538,1.486-1.524,1.486-2.59v-64.832c0-1.071-0.571-2.062-1.499-2.598
		L370.21,89.784c-0.465-0.268-0.982-0.402-1.501-0.402c-0.523,0-1.046,0.137-1.514,0.41l-56.021,32.732
		c-0.92,0.538-1.486,1.524-1.486,2.59v58.059l-44.181,25.329L221.9,182.574v-50.077l50.13-29.343
		c0.919-0.538,1.484-1.523,1.484-2.589V35.731c0-1.066-0.566-2.052-1.486-2.59L216.007,0.41C215.548,0.142,215.026,0,214.494,0
		L214.494,0z M170.286,42.525l44.199-24.751l43.59,24.74v51.289l-43.59,25.327l-44.198-25.339V42.525L170.286,42.525z
		 M325.131,131.908l44.198-24.751l43.589,24.739v51.289l-43.589,25.327l-44.198-25.339V131.908L325.131,131.908z M15.442,131.908
		l44.198-24.751l43.589,24.739v51.289L59.64,208.512l-44.198-25.339V131.908L15.442,131.908z M170.286,221.917l44.199-24.751
		l43.59,24.74v51.291l-43.59,25.328l-44.198-25.34V221.917L170.286,221.917z M325.131,311.298l44.198-24.751l43.589,24.739v51.291
		l-43.589,25.327l-44.198-25.339V311.298L325.131,311.298z M15.442,311.298l44.198-24.751l43.589,24.739v51.291L59.64,387.905
		l-44.198-25.339V311.298L15.442,311.298z M170.286,400.68l44.199-24.751l43.59,24.739v51.291l-43.59,25.327l-44.198-25.339V400.68
		L170.286,400.68z"/>
</g>
</svg>
