<?xml version="1.0" encoding="utf-8"?>
<!-- Generator: Adobe Illustrator 15.0.0, SVG Export Plug-In  -->
<!DOCTYPE svg PUBLIC "-//W3C//DTD SVG 1.1//EN" "http://www.w3.org/Graphics/SVG/1.1/DTD/svg11.dtd" [
	<!ENTITY ns_flows "http://ns.adobe.com/Flows/1.0/">
]>
<svg version="1.1"
	 xmlns="http://www.w3.org/2000/svg" xmlns:xlink="http://www.w3.org/1999/xlink" xmlns:a="http://ns.adobe.com/AdobeSVGViewerExtensions/3.0/"
	 x="0px" y="0px" width="595px" height="595px" viewBox="-113.918 -39.17 595 595" enable-background="new -113.918 -39.17 595 595"
	 xml:space="preserve">
<defs>
</defs>
<path fill="#A7DDE7" d="M374.951,197.98c0,1.66,0,3.33,0,4.99c-11.93,10.74-28.451,14.36-42.99,20
	C228.551,263.13,121.361,306.77,17,346.959c0,40.48,0,85.641,0,127.98c0,12.881,3.49,28.49-5,37c-2.33,0-4.67,0-7,0
	c-1.91-1.43-3.58-3.09-5-5C0,339.619,0,172.32,0,5c1.42-1.91,3.09-3.58,5-5c2.33,0,4.67,0,7,0c0.031,0.97,1.221,0.78,2,1
	c5.271,4.73,2.182,17.82,3,27c103.461,49.89,210.111,97.67,314.961,146.98C346.51,181.82,362.631,187.19,374.951,197.98z
	 M344.961,198.98L18,47.99v280.969L344.961,198.98z"/>
</svg>
