<?xml version="1.0" encoding="utf-8"?>
<!-- Generator: Adobe Illustrator 15.0.0, SVG Export Plug-In  -->
<!DOCTYPE svg PUBLIC "-//W3C//DTD SVG 1.1//EN" "http://www.w3.org/Graphics/SVG/1.1/DTD/svg11.dtd" [
	<!ENTITY ns_flows "http://ns.adobe.com/Flows/1.0/">
]>
<svg version="1.1"
	 xmlns="http://www.w3.org/2000/svg" xmlns:xlink="http://www.w3.org/1999/xlink" xmlns:a="http://ns.adobe.com/AdobeSVGViewerExtensions/3.0/"
	 x="0px" y="0px" width="595px" height="595px" viewBox="-72.668 -54.515 595 595" enable-background="new -72.668 -54.515 595 595"
	 xml:space="preserve">
<defs>
</defs>
<path fill-rule="evenodd" clip-rule="evenodd" fill="#A6DDE7" d="M353.956,0c-2,0-4,0-6,0c-5.214,2.764-7.301,4.375-6.999,10.999
	c0.341,7.455,10.305,11.994,13.999,14.998c36.829,29.955,69.938,78.746,73.99,143.982c4.908,79.001-26.912,137.449-60.992,179.979
	c-4.698,5.863-22.508,25.125-4.999,28.996c12.75,2.818,27.917-24.131,33.995-32.996c27.238-39.727,48.024-83.538,51.994-145.982
	c-0.163-1.163,0.221-1.779,0.999-2c0-8.332,0-16.665,0-24.997C442.909,90.356,406.74,36.872,353.956,0z"/>
<path fill-rule="evenodd" clip-rule="evenodd" fill="#A6DDE7" d="M348.956,63.992c-27.076-28.034-67.498-49.498-118.984-49.994
	c-67.646-0.651-122.299,34.517-158.98,71.991c-6.97,7.121-23.644,23.919-4.999,27.997c10.194,2.229,24.398-18.162,31.996-24.997
	c29.66-26.685,67.534-50.978,121.984-53.993c50.768-2.812,88.689,17.427,113.985,42.995c26.8,27.088,44.813,67.096,41.995,117.985
	c-4.036,72.88-44.737,116.013-84.989,159.979c-28.177,30.779-59.604,61.016-94.988,88.99c-12.407,9.809-46.533,25.441-26.996,40.994
	c2.333,0,4.666,0,6.999,0c50.874-36.959,95.694-76.73,137.982-122.984c41.786-45.705,82.764-98.311,82.989-176.979
	C397.104,132.753,376.017,92.009,348.956,63.992z"/>
<path fill-rule="evenodd" clip-rule="evenodd" fill="#A6DDE7" d="M37.995,222.972c25.847-21.136,45.021-41.766,67.992-66.992
	c28.622-31.432,64.212-64.312,111.985-67.991c19.311-1.488,37.502,2.47,49.994,7.999c4.331,1.917,29.464,22.206,31.996,3
	c1.672-12.682-20.106-19.795-30.996-23.997c-72.342-27.912-133.75,19.491-170.979,59.992C66.495,169.245,34.146,201.498,0,228.971
	c0,2,0,4,0,6C9.999,253.054,27.163,231.831,37.995,222.972z"/>
<path fill-rule="evenodd" clip-rule="evenodd" fill="#A6DDE7" d="M255.968,268.967c24.157-28.18,53.403-94.579,16.998-130.984
	c-11.658-11.659-31.791-19.243-54.993-16.998c-53.482,5.176-81.237,53.241-111.985,83.99
	c-16.658,16.657-33.429,32.552-50.994,46.993C37.164,266.627,16.544,278.164,0,294.963c0,2,0,4,0,6
	c9.485,16.811,28.907-3.096,40.995-11.998c29.19-21.5,52.512-43.515,76.99-67.993c14.174-14.173,30.019-34.159,46.994-49.994
	c21.283-19.854,76.502-49.123,98.987-10.999c6.306,10.69,7.86,24.605,5,39.995c-8.152,43.856-57.229,87.224-84.989,114.986
	c-23.423,23.422-52.145,46.189-81.99,67.992c-11.973,8.746-35.872,20.234-18.997,32.996c13.817-0.219,24.708-11.232,34.995-18.998
	C166.839,360.074,214.982,316.779,255.968,268.967z"/>
<path fill-rule="evenodd" clip-rule="evenodd" fill="#A6DDE7" d="M263.967,307.963c-18.913,21.191-43.93,46.863-64.991,65.99
	c-9.22,8.373-22.96,15.664-13.998,25.998c8.215,9.471,23.26-7.094,30.996-13.998c9.804-8.75,17.314-16.379,23.996-22.998
	c42.762-42.363,104.255-96.426,103.987-177.978c-0.046-13.982-2.866-26.91-14.998-22.998c-10.931,3.526-5.349,18.243-5.999,29.997
	C320.141,242.882,290.827,277.865,263.967,307.963z"/>
<path fill-rule="evenodd" clip-rule="evenodd" fill="#A6DDE7" d="M212.974,224.972c5.621-6.531,18.996-20.115,17.997-26.997
	c-0.828-5.705-9.562-11.583-16.997-5.999c-46.602,57.207-95.376,103.858-154.98,146.983c-8.948,6.473-22.947,12.654-21.997,21.996
	c2.21,21.75,29.426-1.508,36.995-6.998C127.026,315.48,170.803,273.969,212.974,224.972z"/>
</svg>
