<?xml version="1.0" encoding="utf-8"?>
<!-- Generator: Adobe Illustrator 15.0.0, SVG Export Plug-In  -->
<!DOCTYPE svg PUBLIC "-//W3C//DTD SVG 1.1//EN" "http://www.w3.org/Graphics/SVG/1.1/DTD/svg11.dtd" [
	<!ENTITY ns_flows "http://ns.adobe.com/Flows/1.0/">
]>
<svg version="1.1"
	 xmlns="http://www.w3.org/2000/svg" xmlns:xlink="http://www.w3.org/1999/xlink" xmlns:a="http://ns.adobe.com/AdobeSVGViewerExtensions/3.0/"
	 x="0px" y="0px" width="595px" height="595px" viewBox="-56.339 -54.358 595 595" enable-background="new -56.339 -54.358 595 595"
	 xml:space="preserve">
<defs>
</defs>
<path fill="#A7DDE7" d="M241.53,483.062C108.35,483.062,0,374.712,0,241.532C0,108.351,108.35,0,241.53,0
	c133.183,0,241.531,108.351,241.531,241.532C483.062,374.712,374.713,483.062,241.53,483.062z M241.53,15.14
	c-124.831,0-226.391,101.56-226.391,226.393c0,124.833,101.56,226.39,226.391,226.39c124.834,0,226.392-101.558,226.392-226.39
	C467.922,116.699,366.364,15.14,241.53,15.14z"/>
<path fill-rule="evenodd" clip-rule="evenodd" fill="#A7DDE7" d="M248.528,65.052c4.062,10.349-1.596,24.108-11.196,18.662
	C227.422,78.091,236.031,51.42,248.528,65.052z"/>
<path fill-rule="evenodd" clip-rule="evenodd" fill="#A7DDE7" d="M360.499,112.639c4.035-0.973,8.806-1.564,10.263,4.665
	c2.511,10.736-17.896,21.381-20.527,9.332C348.906,120.552,354.149,114.17,360.499,112.639z"/>
<path fill-rule="evenodd" clip-rule="evenodd" fill="#A7DDE7" d="M117.896,112.639c10.519-3.368,21.49,17.116,9.332,19.593
	C120.79,133.545,103.556,117.229,117.896,112.639z"/>
<path fill-rule="evenodd" clip-rule="evenodd" fill="#A7DDE7" d="M247.596,125.702c4.21,24.404,0.727,56.502,1.866,83.978
	c6.159,6.104,13.387,7.688,17.729,13.996c20.735,30.121-19.638,61.709-44.789,41.989c-4.967-3.896-7.162-9.328-11.195-16.796
	c-11.706-3.977-60.662,7.594-63.45-5.6c-3.93-18.593,49.361-7.176,62.516-10.263c6.134-9.105,12.523-17.959,23.328-22.394
	c0-11.861,0-27.05,0-43.854c0-12.956-1.815-35.424,2.8-41.055C238.446,122.257,245.135,124.113,247.596,125.702z M226.135,234.873
	c-4.953,17.865,18.063,31.974,28.926,16.793c9.261-12.939-2.287-30.667-19.595-25.192
	C230.531,228.036,226.997,231.76,226.135,234.873z"/>
<path fill-rule="evenodd" clip-rule="evenodd" fill="#A7DDE7" d="M83.374,235.806c9.181,14.165-18.375,17.9-21.463,8.397
	C58.153,232.633,75.216,231.66,83.374,235.806z"/>
<path fill-rule="evenodd" clip-rule="evenodd" fill="#A7DDE7" d="M420.215,236.739c7.738,12.816-17.461,16.729-21.462,7.464
	C394.259,233.788,410.768,230.226,420.215,236.739z"/>
<path fill-rule="evenodd" clip-rule="evenodd" fill="#A7DDE7" d="M116.032,370.169c-14.136-7.972,13.159-30.474,16.796-14.929
	C134.563,362.661,126.745,370.18,116.032,370.169z"/>
<path fill-rule="evenodd" clip-rule="evenodd" fill="#A7DDE7" d="M367.03,370.169c-10.313-0.215-16.637-6.067-16.796-12.13
	C349.735,338.836,381.872,359.364,367.03,370.169z"/>
<path fill-rule="evenodd" clip-rule="evenodd" fill="#A7DDE7" d="M246.662,419.622c-13.338,10.729-19.102-20.843-5.599-21.461
	C250.553,397.728,251.807,410.904,246.662,419.622z"/>
</svg>
