<?xml version="1.0" encoding="utf-8"?>
<!-- Generator: Adobe Illustrator 15.0.0, SVG Export Plug-In  -->
<!DOCTYPE svg PUBLIC "-//W3C//DTD SVG 1.1//EN" "http://www.w3.org/Graphics/SVG/1.1/DTD/svg11.dtd" [
	<!ENTITY ns_flows "http://ns.adobe.com/Flows/1.0/">
]>
<svg version="1.1"
	 xmlns="http://www.w3.org/2000/svg" xmlns:xlink="http://www.w3.org/1999/xlink" xmlns:a="http://ns.adobe.com/AdobeSVGViewerExtensions/3.0/"
	 x="0px" y="0px" width="619px" height="173px" viewBox="-0.978 -0.972 619 173" enable-background="new -0.978 -0.972 619 173"
	 xml:space="preserve">
<defs>
</defs>
<path fill="#9BEEF4" d="M4.57,22.736h15.258c2.563,0,4.625,0.141,6.188,0.422c1.578,0.297,2.781,0.734,3.609,1.313
	c1.5,0.953,2.648,2.211,3.445,3.773c0.766,1.578,1.148,3.422,1.148,5.531c0,2.047-0.305,3.773-0.914,5.18
	c-0.688,1.5-1.656,2.703-2.906,3.609c-0.609,0.406-1.188,0.742-1.734,1.008c-0.547,0.25-1.234,0.469-2.063,0.656
	c-1.531,0.328-3.688,0.492-6.469,0.492h-8.555v11.813H4.57V22.736z M19.734,28.806h-8.156v9.914h8.602
	c2.172,0,3.766-0.414,4.781-1.242c0.984-0.813,1.477-2.047,1.477-3.703c0-1.797-0.508-3.074-1.523-3.832
	S22.172,28.806,19.734,28.806z"/>
<path fill="#9BEEF4" d="M46.148,22.736V36.47h12.914V22.736h7.008v33.797h-7.008V42.423H46.148v14.109h-7.008V22.736H46.148z"/>
<path fill="#9BEEF4" d="M82.523,22.736h7.5l14.25,33.797h-7.828l-3.07-8.016H78.844l-2.977,8.016h-7.453L82.523,22.736z
	 M85.992,29.509L81.141,42.47h9.938L85.992,29.509z"/>
<path fill="#9BEEF4" d="M106.641,22.736h17.32c4.031,0,6.992,0.813,8.883,2.438c1.859,1.672,2.789,4.25,2.789,7.734
	c0,2.531-0.578,4.625-1.734,6.281c-1.141,1.672-2.82,2.75-5.039,3.234l8.344,14.109h-7.922l-7.336-13.242h-8.297v13.242h-7.008
	V22.736z M122.273,28.806h-8.625v8.484h8.648c2.297,0,3.914-0.344,4.852-1.031c0.922-0.625,1.383-1.711,1.383-3.258
	c0-1.5-0.453-2.586-1.359-3.258C126.25,29.119,124.617,28.806,122.273,28.806z"/>
<path fill="#9BEEF4" d="M141.563,22.736h10.336l8.555,25.922l8.484-25.922h10.266v33.797h-6.867l0.586-26.32l-8.602,26.32h-7.43
	l-8.836-26.602l0.656,26.602h-7.148V22.736z"/>
<path fill="#9BEEF4" d="M195.68,22.736h7.5l14.25,33.797h-7.828l-3.07-8.016H192l-2.977,8.016h-7.453L195.68,22.736z
	 M199.148,29.509l-4.852,12.961h9.938L199.148,29.509z"/>
<path fill="#9BEEF4" d="M233.555,28.548c-2.906,0-5,0.93-6.281,2.789c-1.281,1.844-1.922,4.914-1.922,9.211
	c0,3.672,0.609,6.27,1.828,7.793s3.344,2.285,6.375,2.285h11.578v5.906h-11.906c-2.688,0-4.75-0.227-6.188-0.68
	c-1.469-0.422-2.875-1.188-4.219-2.297c-1.703-1.344-2.992-3.141-3.867-5.391c-0.859-2.203-1.289-4.844-1.289-7.922
	c0-5.938,1.281-10.352,3.844-13.242c2.563-2.844,6.531-4.266,11.906-4.266h11.719v5.813H233.555z"/>
<path fill="#9BEEF4" d="M264.047,28.642c-2.484,0-4.398,0.641-5.742,1.922c-0.672,0.672-1.203,1.484-1.594,2.438
	c-0.375,1-0.563,2.156-0.563,3.469l19.477,0.047v5.859h-19.523c0,2.938,0.613,5.047,1.84,6.328s3.262,1.922,6.105,1.922h11.578
	v5.906h-11.906c-2.688,0-4.75-0.227-6.188-0.68c-1.469-0.422-2.875-1.188-4.219-2.297c-1.703-1.344-2.984-3.141-3.844-5.391
	c-0.859-2.203-1.289-4.844-1.289-7.922c0-5.938,1.273-10.352,3.82-13.242c2.563-2.844,6.531-4.266,11.906-4.266h11.719v5.906
	H264.047z"/>
<path fill="#9BEEF4" d="M288.609,22.736v20.233c0,3.107,0.57,5.285,1.711,6.534c1.125,1.28,3.063,1.92,5.813,1.92
	s4.703-0.625,5.859-1.874c1.125-1.218,1.688-3.411,1.688-6.581V22.736h7.008V43.16c0,2.217-0.141,4.091-0.422,5.621
	c-0.328,1.531-0.844,2.678-1.547,3.443c-1.281,1.585-2.945,2.762-4.992,3.531s-4.578,1.153-7.594,1.153
	c-2.969,0-5.461-0.367-7.477-1.102c-2.047-0.734-3.766-1.922-5.156-3.563c-0.625-0.828-1.078-1.93-1.359-3.305
	c-0.328-1.375-0.492-3.297-0.492-5.766V22.736H288.609z"/>
<path fill="#9BEEF4" d="M324.797,28.712h-10.805v-5.906h28.945v5.906h-10.898v27.82h-7.242V28.712z"/>
<path fill="#9BEEF4" d="M353.743,56.533h-7.36V22.736h7.36V56.533z"/>
<path fill="#9BEEF4" d="M374.485,28.548c-2.906,0-5,0.93-6.281,2.789c-1.281,1.844-1.922,4.914-1.922,9.211
	c0,3.672,0.609,6.27,1.828,7.793s3.344,2.285,6.375,2.285h11.578v5.906h-11.906c-2.688,0-4.75-0.227-6.188-0.68
	c-1.469-0.422-2.875-1.188-4.219-2.297c-1.703-1.344-2.992-3.141-3.867-5.391c-0.859-2.203-1.289-4.844-1.289-7.922
	c0-5.938,1.281-10.352,3.844-13.242c2.563-2.844,6.531-4.266,11.906-4.266h11.719v5.813H374.485z"/>
<path fill="#9BEEF4" d="M400.758,22.736h7.5l14.25,33.797h-7.828l-3.07-8.016h-14.531l-2.977,8.016h-7.453L400.758,22.736z
	 M404.227,29.509l-4.852,12.961h9.938L404.227,29.509z"/>
<path fill="#9BEEF4" d="M438.118,56.533c-3.141,0-5.461-0.274-6.961-0.824c-1.5-0.516-2.813-1.382-3.938-2.601
	c-1.156-1.203-1.973-2.559-2.449-4.066c-0.477-1.508-0.715-3.574-0.715-6.199V22.736h7.055v19.858c0,0.953,0.016,1.78,0.047,2.482
	c0.047,0.703,0.109,1.265,0.188,1.686c0.234,0.828,0.539,1.468,0.914,1.92c0.609,0.734,1.43,1.312,2.461,1.733
	c1.047,0.328,2.391,0.492,4.031,0.492H447v5.625H438.118z"/>
<path fill="#F7941D" d="M14.109,70.736h7.5l14.25,33.796h-7.828l-3.07-8.016H10.43l-2.977,8.016H0L14.109,70.736z M17.578,77.509
	L12.727,90.47h9.938L17.578,77.509z"/>
<path fill="#F7941D" d="M38.227,70.736h17.32c4.031,0,6.992,0.813,8.883,2.438c1.859,1.672,2.789,4.25,2.789,7.734
	c0,2.531-0.578,4.625-1.734,6.281c-1.141,1.672-2.82,2.75-5.039,3.234l8.344,14.109h-7.922L53.531,91.29h-8.297v13.242h-7.008
	V70.736z M53.859,76.806h-8.625v8.484h8.648c2.297,0,3.914-0.344,4.852-1.031c0.922-0.625,1.383-1.711,1.383-3.258
	c0-1.5-0.453-2.586-1.359-3.258C57.836,77.118,56.203,76.806,53.859,76.806z"/>
<path fill="#F7941D" d="M80.461,76.712H69.656v-5.906h28.945v5.906H87.703v27.82h-7.242V76.712z"/>
<path fill="#F7941D" d="M109.406,104.532h-7.359V70.736h7.359V104.532z"/>
<path fill="#F7941D" d="M116.133,89.017c0-4.375,0.258-7.555,0.773-9.539c0.484-1.984,1.383-3.617,2.695-4.898
	c1.281-1.281,2.992-2.242,5.133-2.883c2.109-0.641,4.719-0.961,7.828-0.961h10.711v5.906h-11.297c-2.969,0-5.172,0.641-6.609,1.922
	c-1.484,1.313-2.227,3.414-2.227,6.305h20.133v5.859h-20.133v13.805h-7.008V89.017z"/>
<path fill="#F7941D" d="M155.367,104.532h-7.359V70.736h7.359V104.532z"/>
<path fill="#F7941D" d="M176.109,76.548c-2.906,0-5,0.93-6.281,2.789c-1.281,1.844-1.922,4.914-1.922,9.211
	c0,3.672,0.609,6.27,1.828,7.793s3.344,2.285,6.375,2.285h11.578v5.906h-11.906c-2.688,0-4.75-0.227-6.188-0.68
	c-1.469-0.422-2.875-1.188-4.219-2.297c-1.703-1.344-2.992-3.141-3.867-5.391c-0.859-2.203-1.289-4.844-1.289-7.922
	c0-5.938,1.281-10.352,3.844-13.242c2.563-2.844,6.531-4.266,11.906-4.266h11.719v5.812H176.109z"/>
<path fill="#F7941D" d="M200.227,104.532h-7.359V70.736h7.359V104.532z"/>
<path fill="#F7941D" d="M216.75,70.736h7.5l14.25,33.796h-7.828l-3.07-8.016H213.07l-2.977,8.016h-7.453L216.75,70.736z
	 M220.219,77.509l-4.852,12.961h9.938L220.219,77.509z"/>
<path fill="#F7941D" d="M254.109,104.532c-3.141,0-5.461-0.273-6.961-0.823c-1.5-0.516-2.813-1.382-3.938-2.601
	c-1.156-1.203-1.973-2.559-2.449-4.066s-0.715-3.574-0.715-6.199V70.736h7.055v19.859c0,0.952,0.016,1.779,0.047,2.482
	c0.047,0.702,0.109,1.264,0.188,1.686c0.234,0.828,0.539,1.468,0.914,1.92c0.609,0.734,1.43,1.313,2.461,1.733
	c1.047,0.328,2.391,0.491,4.031,0.491h8.25v5.625H254.109z"/>
<path fill="#F7941D" d="M11.953,152.532H4.594v-33.797h7.359V152.532z"/>
<path fill="#F7941D" d="M18.914,118.735h8.906l13.664,24.281l-0.328-24.281h7.195v33.797h-8.156l-14.414-25.547l0.328,25.547h-7.195
	V118.735z"/>
<path fill="#F7941D" d="M62.414,124.712H51.609v-5.906h28.945v5.906H69.656v27.82h-7.242V124.712z"/>
<path fill="#F7941D" d="M97.734,124.642c-2.484,0-4.398,0.641-5.742,1.922c-0.672,0.672-1.203,1.484-1.594,2.438
	c-0.375,1-0.563,2.156-0.563,3.469l19.477,0.047v5.859H89.789c0,2.938,0.613,5.047,1.84,6.328s3.262,1.922,6.105,1.922h11.578v5.906
	H97.406c-2.688,0-4.75-0.227-6.188-0.68c-1.469-0.422-2.875-1.188-4.219-2.297c-1.703-1.344-2.984-3.141-3.844-5.391
	c-0.859-2.203-1.289-4.844-1.289-7.922c0-5.938,1.273-10.352,3.82-13.242c2.563-2.844,6.531-4.266,11.906-4.266h11.719v5.906H97.734
	z"/>
<path fill="#F7941D" d="M128.672,152.532c-3.141,0-5.461-0.273-6.961-0.823c-1.5-0.516-2.813-1.382-3.938-2.601
	c-1.156-1.203-1.973-2.559-2.449-4.066s-0.715-3.574-0.715-6.199v-20.107h7.055v19.859c0,0.952,0.016,1.779,0.047,2.482
	c0.047,0.702,0.109,1.264,0.188,1.686c0.234,0.828,0.539,1.468,0.914,1.92c0.609,0.734,1.43,1.313,2.461,1.733
	c1.047,0.328,2.391,0.491,4.031,0.491h8.25v5.625H128.672z"/>
<path fill="#F7941D" d="M154.594,152.532c-3.141,0-5.461-0.273-6.961-0.823c-1.5-0.516-2.813-1.382-3.938-2.601
	c-1.156-1.203-1.973-2.559-2.449-4.066s-0.715-3.574-0.715-6.199v-20.107h7.055v19.859c0,0.952,0.016,1.779,0.047,2.482
	c0.047,0.702,0.109,1.264,0.188,1.686c0.234,0.828,0.539,1.468,0.914,1.92c0.609,0.734,1.43,1.313,2.461,1.733
	c1.047,0.328,2.391,0.491,4.031,0.491h8.25v5.625H154.594z"/>
<path fill="#F7941D" d="M174.656,152.532h-7.359v-33.797h7.359V152.532z"/>
<path fill="#F7941D" d="M193.781,138.47v-5.953h16.594v20.016h-15.117c-2.688,0-4.828-0.227-6.422-0.68
	c-1.406-0.453-2.797-1.219-4.172-2.297c-1.703-1.344-2.992-3.141-3.867-5.391c-0.859-2.203-1.289-4.844-1.289-7.922
	c0-5.938,1.297-10.352,3.891-13.242c2.563-2.844,6.516-4.266,11.859-4.266h15.117v5.813h-15.117c-2.688,0-4.672,0.891-5.953,2.672
	c-1.313,1.828-1.969,4.727-1.969,8.695c0,3.656,0.641,6.313,1.922,7.969c1.25,1.703,3.25,2.555,6,2.555h7.922v-7.969H193.781z"/>
<path fill="#F7941D" d="M229.969,124.642c-2.484,0-4.398,0.641-5.742,1.922c-0.672,0.672-1.203,1.484-1.594,2.438
	c-0.375,1-0.563,2.156-0.563,3.469l19.477,0.047v5.859h-19.523c0,2.938,0.613,5.047,1.84,6.328s3.262,1.922,6.105,1.922h11.578
	v5.906h-11.906c-2.688,0-4.75-0.227-6.188-0.68c-1.469-0.422-2.875-1.188-4.219-2.297c-1.703-1.344-2.984-3.141-3.844-5.391
	c-0.859-2.203-1.289-4.844-1.289-7.922c0-5.938,1.273-10.352,3.82-13.242c2.563-2.844,6.531-4.266,11.906-4.266h11.719v5.906
	H229.969z"/>
<path fill="#F7941D" d="M247.641,118.735h8.906l13.664,24.281l-0.328-24.281h7.195v33.797h-8.156l-14.414-25.547l0.328,25.547
	h-7.195V118.735z"/>
<path fill="#F7941D" d="M297.609,124.548c-2.906,0-5,0.93-6.281,2.789c-1.281,1.844-1.922,4.914-1.922,9.211
	c0,3.672,0.609,6.27,1.828,7.793s3.344,2.285,6.375,2.285h11.578v5.906h-11.906c-2.688,0-4.75-0.227-6.188-0.68
	c-1.469-0.422-2.875-1.188-4.219-2.297c-1.703-1.344-2.992-3.141-3.867-5.391c-0.859-2.203-1.289-4.844-1.289-7.922
	c0-5.938,1.281-10.352,3.844-13.242c2.563-2.844,6.531-4.266,11.906-4.266h11.719v5.813H297.609z"/>
<path fill="#F7941D" d="M328.102,124.642c-2.484,0-4.398,0.641-5.742,1.922c-0.672,0.672-1.203,1.484-1.594,2.438
	c-0.375,1-0.563,2.156-0.563,3.469l19.477,0.047v5.859h-19.523c0,2.938,0.613,5.047,1.84,6.328s3.262,1.922,6.105,1.922h11.578
	v5.906h-11.906c-2.688,0-4.75-0.227-6.188-0.68c-1.469-0.422-2.875-1.188-4.219-2.297c-1.703-1.344-2.984-3.141-3.844-5.391
	c-0.859-2.203-1.289-4.844-1.289-7.922c0-5.938,1.273-10.352,3.82-13.242c2.563-2.844,6.531-4.266,11.906-4.266h11.719v5.906
	H328.102z"/>
<g id="Color_Fill_13_copy_2_2_">
	<g>
		<path fill-rule="evenodd" clip-rule="evenodd" fill="#9BEEF4" d="M566.547,157.396l-0.021-26.561h-0.024l0.01-0.012l-6.749-10.974
			l-0.019,0.029c-2.572-4.112-5.759-9.072-7.717-11.644h-11.366c4.242,10.663,8.646,15.28,12.728,17.234l0.121,0.038l0.01,21.591
			c-1.284,0.364-2.225,1.544-2.224,2.945c0,1.689,1.371,3.06,3.062,3.059c1.689-0.001,3.06-1.372,3.059-3.062
			c-0.001-1.4-0.942-2.58-2.228-2.943l-0.01-20.925l0.121,0.046c2.543,0.817,4.738,0.657,6.632,0.495l2.927,5.093l0.021,25.591
			c-1.284,0.365-2.224,1.547-2.222,2.947c0.002,1.69,1.374,3.059,3.064,3.056c1.69-0.002,3.059-1.374,3.056-3.064
			C568.775,158.937,567.833,157.758,566.547,157.396z M555.626,150.075c0,0.763-0.617,1.382-1.381,1.382
			c-0.763,0.001-1.382-0.617-1.382-1.381c0-0.763,0.618-1.381,1.381-1.382C555.007,148.694,555.626,149.313,555.626,150.075z
			 M565.802,161.779c-0.763,0.031-1.406-0.561-1.438-1.322c-0.032-0.763,0.56-1.406,1.322-1.438c0.762-0.032,1.406,0.56,1.438,1.322
			C567.156,161.103,566.564,161.747,565.802,161.779z M499.035,19.74l0.399-0.438c-0.164-0.685-0.207-1.411-0.108-2.151
			c0.433-3.258,3.426-5.548,6.684-5.114c0.349,0.046,0.686,0.122,1.01,0.225l0.563-0.466c5.351-4.974,9.744-9.058,9.744-9.058
			c-16.388,1.012-34.394,11.734-43.902,26.908l15.174-0.202C488.597,29.442,493.375,25,499.035,19.74z M553.505,138.461
			l-6.044,0.003c-0.363-1.284-1.544-2.226-2.945-2.225c-1.689,0.001-3.059,1.371-3.059,3.062c0.001,1.69,1.372,3.06,3.063,3.059
			c1.4,0,2.58-0.942,2.942-2.227l6.044-0.003L553.505,138.461z M544.486,140.571c-0.763,0-1.382-0.618-1.382-1.381
			c0-0.764,0.618-1.382,1.381-1.383c0.763,0,1.382,0.618,1.382,1.381C545.868,139.952,545.249,140.57,544.486,140.571z
			 M612.701,47.262c0,0-5.526,0.091-11.225,0.185l-0.855,0.021c0.771,1.159,1.142,2.592,0.944,4.081
			c-0.273,2.052-1.562,3.718-3.292,4.563l5.146,11.961c0.807-0.255,1.678-0.347,2.572-0.229c2.369,0.315,4.227,1.984,4.896,4.125
			l0.429,0.009c3.372-0.028,5.847-0.048,5.847-0.048C617.357,64.436,615.97,55.835,612.701,47.262z M590.586,47.666l-0.589-0.029
			c-0.543,0.009-0.85,0.014-0.85,0.014s-0.42,0.394-1.146,1.074l-0.385,0.354c1.21,0.137,2.272,0.257,2.272,0.257
			C590.038,48.733,590.276,48.173,590.586,47.666z M555.148,88.92c-0.985-1.069-1.569-2.493-1.571-4.02l-27.521-3.823
			c-0.072,0.367-0.177,0.722-0.313,1.06l25.231,11.243L555.148,88.92z M564.665,99.054c0.844-0.805,1.804-1.721,2.872-2.742
			l0.294-0.281c-2.385-3.078-4.873-6.292-4.873-6.292c-1.183,0.838-2.67,1.254-4.22,1.048c-1.04-0.139-1.979-0.539-2.765-1.125
			l-3.927,4.197c0,0,6.785,3.023,12.327,5.493L564.665,99.054z M549.243,53.597c-0.006,0.2-0.022,0.402-0.05,0.605
			c-0.007,0.054-0.021,0.105-0.028,0.158c0,0,0.314-0.118,0.85-0.319L549.243,53.597z M577.801,61.9c0,0-0.521-1.085-1.205-2.511
			l-0.376,0.381c-1.223,1.146-2.419,2.268-3.532,3.311l-0.298,0.282c2.208,0.688,3.716,1.157,3.716,1.157
			C576.434,63.489,577.028,62.593,577.801,61.9z M580.414,72.122c-1.26-0.294-2.342-0.981-3.141-1.907l-6.19,5.79l8.872-0.659
			L580.414,72.122z M576.624,69.303c-0.197-0.341-0.36-0.702-0.487-1.079l-22.558,4.935l1.968,4l13.773-1.024L576.624,69.303z
			 M553.93,58.724l-5.652,3.66l4.797,9.75l22.807-4.989c-0.071-0.517-0.081-1.049-0.01-1.591c0,0-1.798-0.559-4.364-1.358
			l-0.239,0.217c-2.795,2.62-4.779,4.481-4.779,4.481s-4.893-4.526-10.052-9.394l-0.834-0.28
			C553.663,58.616,553.93,58.724,553.93,58.724z M586.844,60.633l-3.915-2.845l-0.359,2.644c1.232,0.167,2.324,0.701,3.184,1.476
			L586.844,60.633z M582.374,53.957l-0.183,0.216c-0.286,0.268-0.577,0.541-0.871,0.816l-0.206,0.162
			c0.602,0.438,0.999,0.726,0.999,0.726S582.228,55.029,582.374,53.957z M591.586,55.089c-1.249-1.18-1.97-2.88-1.854-4.699
			c0,0-1.641-0.186-3.164-0.358l-0.178,0.203c-0.7,0.656-1.505,1.411-2.382,2.232l-0.412,0.398
			c-0.245,1.805-0.506,3.724-0.506,3.724l4.447,3.232L591.586,55.089z M581.5,60.388l0.45-3.312c0,0-0.685-0.497-1.634-1.187
			l-0.262,0.287c-0.789,0.74-1.594,1.494-2.396,2.247l-0.231,0.235c0.702,1.464,1.244,2.593,1.244,2.593
			C579.51,60.738,580.478,60.433,581.5,60.388z M555.822,80.231l-0.941-1.914l-26.467,1.967l25.267,3.511
			C553.951,82.339,554.735,81.095,555.822,80.231z M525.48,77.147c0.158,0.299,0.29,0.612,0.396,0.937l26.082-5.706l-4.618-9.387
			L525.48,77.147z M560.187,103.212l0.232-0.127c0,0,0.496-0.432,2.58-2.415l0.51-0.487c-5.583-2.488-12.267-5.467-12.267-5.467
			l-2.584,2.763c0.922,1.188,1.394,2.722,1.209,4.326C549.868,101.805,555.015,102.507,560.187,103.212z M526.121,79.167
			c0.007,0.059,0.015,0.117,0.021,0.178l28.213-2.098l-1.892-3.844L526.121,79.167z M568.031,77.341l-11.958,0.889l0.685,1.392
			c1.054-0.554,2.28-0.803,3.55-0.634c1.526,0.203,2.836,0.973,3.757,2.064L568.031,77.341z M569.794,77.209l-5.092,4.763
			c0.268,0.475,0.471,0.984,0.601,1.522l13.993-3.517l0.499-3.512L569.794,77.209z M580.289,80.87c0,0-0.224,1.573-0.541,3.811
			l0.298-0.363c1.673-1.6,3.295-3.15,4.789-4.58l-0.34,0.076C582.042,80.431,580.289,80.87,580.289,80.87z M565.421,85.671
			c-0.175,1.312-0.768,2.461-1.622,3.344c0,0,2.438,3.147,4.796,6.193l0.419-0.342c2.8-2.678,5.99-5.729,9.105-8.707l0.352-0.384
			c0.377-2.647,0.656-4.612,0.656-4.612l-13.665,3.434C565.479,84.95,565.469,85.309,565.421,85.671z M580.458,79.686
			c0,0,2.601-0.653,5.85-1.47l0.174-0.053c0.826-0.79,1.598-1.527,2.296-2.195l0.151-0.181c-4.144,0.308-8.001,0.595-8.001,0.595
			L580.458,79.686z M544.745,95.229c1.217,0.162,2.299,0.682,3.154,1.438l2.272-2.428l-24.937-11.113
			c-0.015,0.024-0.03,0.047-0.045,0.07l14.49,13.805C540.948,95.688,542.796,94.97,544.745,95.229z M594.88,56.663
			c-0.907-0.121-1.735-0.446-2.455-0.914l-4.021,4.701l12.561,9.129c0.435-0.441,0.933-0.814,1.481-1.103l-5.157-11.989
			C596.529,56.704,595.713,56.774,594.88,56.663z M581.512,72.271l-0.425,2.99c0,0,4.355-0.324,8.803-0.655l0.366-0.053
			c1.58-1.51,2.533-2.422,2.533-2.422s0.979-0.008,2.545-0.021l0.229-0.015c-3.617-1.229-8.575-2.913-8.575-2.913
			C585.922,71.13,583.82,72.374,581.512,72.271z M586.483,62.694c0.935,1.212,1.405,2.781,1.188,4.418
			c-0.051,0.382-0.14,0.749-0.257,1.101c0,0,8.507,2.89,11.209,3.808l0.177,0.06c0.194-0.002,0.393-0.003,0.593-0.005l0.107-0.012
			c0.177-0.603,0.446-1.159,0.788-1.661l-12.578-9.142L586.483,62.694z M523.665,75.074l15.533-17.348
			c-0.601-0.572-1.077-1.263-1.396-2.031l-10.952-1.553l-4.482,20.239C522.832,74.56,523.268,74.792,523.665,75.074z
			 M538.985,97.872l-14.492-13.808c-1.268,1.306-3.111,2.021-5.054,1.762c-3.258-0.433-5.548-3.426-5.114-6.684
			c0.252-1.896,1.374-3.46,2.907-4.354l-8.438-18.191c-0.919,0.369-1.942,0.517-2.995,0.376c-0.651-0.086-1.264-0.275-1.823-0.548
			l-0.295,0.313c-2.861,2.753-5.373,5.17-5.373,5.17h-30.46c4.556,12.593,16.013,21.578,30.864,19.73
			c1.417,0.607,0.203,8.093,2.428,13.15c6.272,12.948,31.764,9.711,37.024,7.891l0.043-0.021c-0.01-0.036-0.02-0.072-0.027-0.107
			c-0.174-0.702-0.221-1.448-0.12-2.209C538.182,99.429,538.511,98.595,538.985,97.872z M552.55,58.294l-4.438-1.382
			c-0.469,0.645-1.063,1.186-1.74,1.595l1.413,2.873L552.55,58.294z M537.395,52.633c0.175-1.313,0.771-2.465,1.627-3.349
			l-11.119,0.096l-0.813,3.672l10.358,1.469C537.334,53.914,537.309,53.279,537.395,52.633z M524.872,76.218l21.976-14.23
			l-1.474-2.995c-0.885,0.331-1.861,0.458-2.864,0.324c-0.899-0.12-1.721-0.44-2.436-0.901l-15.566,17.386
			C524.635,75.935,524.757,76.074,524.872,76.218z M512.528,50.988l13.459,1.909l0.776-3.506l-14.435,0.125
			C512.457,49.988,512.521,50.483,512.528,50.988z M509.783,56.091l8.455,18.23c0.86-0.306,1.803-0.422,2.771-0.293
			c0.098,0.013,0.191,0.036,0.287,0.053l4.45-20.096l-13.307-1.887C512.143,53.802,511.146,55.22,509.783,56.091z M553.705,57.547
			c0,0,0.16-0.104,0.442-0.287l-3.206-2.379c-1.307,0.491-2.152,0.81-2.152,0.81c-0.095,0.229-0.2,0.452-0.321,0.665l0.257-0.358
			L553.705,57.547z"/>
	</g>
</g>
<g id="Color_Fill_13_copy_3_2_">
	<g>
		<path fill-rule="evenodd" clip-rule="evenodd" fill="#F7941D" d="M558.426,19.537l-0.09-0.032
			c-0.372-0.096-0.729-0.224-1.064-0.384l-0.438-0.158l0.041-0.051c-0.595-0.34-1.117-0.78-1.557-1.291l-1.747-0.622l-8.851,4.894
			l5.034,5.218l7.659,0.444L558.426,19.537z M580.555,28.898c0.001-0.257,0.012-0.516,0.047-0.778
			c0.024-0.187,0.061-0.371,0.102-0.551l-17.998-6.49l2.121,6.906L580.555,28.898z M565.601,44.244l-5.053-5.333
			c-0.952,0.598-2.078,0.927-3.262,0.905l8.22,4.572C565.536,44.338,565.57,44.292,565.601,44.244z M554.786,28.518l-3.893-0.226
			l1.827,1.894C553.277,29.482,553.982,28.91,554.786,28.518z M551.462,33.416l-11.335-3.144l12.264,6.821
			C551.708,36.035,551.359,34.755,551.462,33.416z M581.067,26.483l-16.242-9.515c-0.651,1.007-1.59,1.793-2.688,2.257l0.183,0.594
			l18.714,6.748C581.045,26.54,581.055,26.511,581.067,26.483z M568.047,42.062l-2.943-9.585l-1.909,0.11
			c0.146,0.661,0.188,1.356,0.093,2.066c-0.189,1.428-0.872,2.67-1.852,3.579l4.854,5.123
			C566.792,42.821,567.386,42.381,568.047,42.062z M559.442,19.903l-0.975,7.713l5.237,0.304l-2.238-7.288L559.442,19.903z
			 M552.102,31.147l-2.846-2.95l-10.327-0.599c-0.008,0.172-0.02,0.344-0.042,0.518c-0.028,0.213-0.069,0.422-0.119,0.626
			l12.882,3.572C551.76,31.904,551.913,31.514,552.102,31.147z M562.864,31.55l1.921-0.11l-0.731-2.384l-3.468-0.202
			C561.602,29.504,562.395,30.447,562.864,31.55z M580.774,30.52c-0.047-0.164-0.084-0.331-0.116-0.5l-15.482-0.898l0.692,2.257
			L580.774,30.52z M523.692,7.193c0.433-3.258,3.426-5.548,6.684-5.114c3.256,0.433,5.545,3.423,5.114,6.679l18.832,2.746
			c0.996-2.45,3.546-4.021,6.29-3.656c3.258,0.434,5.548,3.426,5.114,6.684c-0.07,0.53-0.215,1.032-0.411,1.503l16.268,9.529
			c1.227-1.802,3.396-2.865,5.703-2.558c3.258,0.433,5.548,3.426,5.114,6.684c-0.271,2.047-1.555,3.71-3.277,4.558
			c0,0,1.914,4.451,3.294,7.657l0.113,0.284c6.348,0,16.243,0,16.243,0C591.98,9.21,562.038-2.726,526.43,0.511
			c0,0-6.299,5.782-13.699,12.577l-1.173,0.9c3.593-1.179,12.411-4.072,12.411-4.072C523.676,9.067,523.565,8.143,523.692,7.193z
			 M548.118,27.016l-4.405-4.566l-5.137,2.841c0.14,0.381,0.238,0.779,0.298,1.188L548.118,27.016z M579.545,49.237
			c-1.598-0.181-3.152-0.357-3.152-0.357c-0.196,0.781-0.544,1.493-1.006,2.109c0,0,0.542,0.394,1.319,0.959l0.188,0.14
			c0.995-0.939,1.987-1.925,2.941-2.832L579.545,49.237z M576.5,99.634c0,0,0.356-2.51,0.808-5.678l-0.299,0.336
			c-1.776,1.686-3.521,3.34-5.144,4.879l-0.127,0.096c0.733,0.947,1.208,1.56,1.208,1.56
			C573.948,100.073,575.185,99.638,576.5,99.634z M572.125,101.576c0,0-0.468-0.603-1.191-1.537l-0.143,0.152
			c-0.44,0.417-0.869,0.823-1.284,1.218l-0.152,0.146c1.3,0.579,2.081,0.944,2.081,0.944
			C571.636,102.167,571.868,101.858,572.125,101.576z M571.411,41.524c0.711,0.094,1.372,0.317,1.973,0.631l8.538-9.459
			c-0.291-0.352-0.547-0.733-0.751-1.144l-14.983,0.863l2.848,9.273C569.786,41.479,570.589,41.415,571.411,41.524z
			 M568.329,102.528c-0.529,0.501-1.029,0.975-1.495,1.418l-0.166,0.15c2.353,0.32,3.987,0.543,3.987,0.543
			c0.063-0.396,0.164-0.777,0.299-1.14c0,0-0.971-0.433-2.48-1.105L568.329,102.528z M531.448,21.583l-1.273-7.688
			c-0.447,0.044-0.904,0.043-1.368-0.019c-0.538-0.071-1.047-0.219-1.523-0.419l-4.886,9.238l5.41,1.713
			C528.591,23.019,529.908,21.996,531.448,21.583z M534.513,11.313l9.452,9.797l8.284-4.582l-17.224-6.133
			C534.882,10.719,534.709,11.024,534.513,11.313z M554.009,12.523L537.3,10.087l16.18,5.761l0.659-0.364
			c-0.242-0.792-0.328-1.646-0.212-2.521C553.948,12.813,553.979,12.668,554.009,12.523z M519.284,28.583l7.759-1.24
			c0-0.263,0.011-0.528,0.046-0.796c0.054-0.406,0.148-0.797,0.277-1.169l-5.471-1.732L519.284,28.583z M533.772,21.432
			c1.896,0.252,3.459,1.374,4.354,2.907l4.832-2.672l-9.157-9.492c-0.715,0.716-1.604,1.249-2.59,1.528l1.276,7.7
			C532.907,21.369,533.336,21.375,533.772,21.432z M600.937,77.884c-0.126-0.131-0.246-0.267-0.36-0.408l-0.233,0.023
			c-3.276,0.054-5.732,0.094-5.732,0.094s-7.887,7.482-15.775,14.967l-0.235,0.23c-0.536,3.777-0.994,6.943-0.994,6.943
			c0.743,0.137,1.431,0.405,2.042,0.782L600.937,77.884z M529.124,31.853c0,0-8.026,7.075-13.291,11.716l-0.265,0.263
			c3.19,0.019,7.768,0.046,12.392,0.073l0.152-0.604c1.009-4.552,2.344-10.583,2.344-10.583
			C529.969,32.489,529.524,32.196,529.124,31.853z M564.727,46.638c0.058-0.435,0.164-0.85,0.308-1.247l-26.951-14.989
			c-0.479,0.795-1.137,1.462-1.909,1.953c0,0,2.62,6.598,4.41,11.103l0.196,0.522c2.942,0.018,4.869,0.029,4.869,0.029
			s1.878,1.709,4.49,4.085l0.661-0.025c5.548-0.048,13.899-0.121,13.899-0.121C564.664,47.52,564.667,47.082,564.727,46.638z
			 M535.235,32.838c-0.93,0.38-1.965,0.535-3.032,0.393c-0.236-0.032-0.467-0.081-0.692-0.138c0,0-1.285,5.803-2.266,10.232
			l-0.12,0.587c3.807,0.022,7.569,0.044,10.541,0.062l-0.187-0.452C537.717,39.087,535.235,32.838,535.235,32.838z M527.134,28.397
			l-8.469,1.354c0,0-4.738,8.961-7.218,13.65l-0.218,0.405c0,0,0.945,0.006,2.68,0.016l0.376-0.291
			c5.19-4.575,14.104-12.433,14.104-12.433C527.757,30.328,527.317,29.402,527.134,28.397z M506.602,31.68l0.18,13.448
			c0.195,0.007,0.391,0.022,0.587,0.048c0.601,0.08,1.168,0.248,1.691,0.487l8.305-15.704L506.602,31.68z M551.969,49.171
			l-0.578,0.062c1.063,0.967,2.205,2.006,3.365,3.062l0.845-0.355c3.702-1.392,7.625-2.867,7.625-2.867
			S556.621,49.131,551.969,49.171z M610.457,77.331l-0.158,0.003l-0.315-0.002c-1.249,1.675-3.344,2.606-5.561,2.312
			c-0.987-0.131-1.883-0.5-2.643-1.037l-21.241,22.581c1.386,1.269,2.153,3.171,1.887,5.176c-0.434,3.258-3.426,5.548-6.685,5.114
			c-2.936-0.391-5.077-2.859-5.157-5.728c0,0-1.927-0.263-4.611-0.63c-0.107-0.014-0.216-0.029-0.325-0.043l-0.272,0.254
			c-1.454,1.378-2.325,2.205-2.325,2.205l-4.451,0.607l11.33,18.612h3.032l-0.182,38.307c-1.286,0.357-2.233,1.533-2.24,2.934
			c-0.008,1.69,1.355,3.066,3.046,3.075c1.69,0.008,3.066-1.356,3.075-3.046c0.006-1.4-0.93-2.585-2.212-2.955l0.136-28.532
			l5.505,0.025l-0.036,7.744c-1.286,0.357-2.233,1.533-2.24,2.934c-0.008,1.69,1.356,3.066,3.046,3.075
			c1.69,0.008,3.066-1.356,3.074-3.046c0.007-1.4-0.929-2.585-2.211-2.955l0.046-9.674h-0.039v-0.007l-7.136-0.034l0.037-7.845
			h10.628l2.08,2.94l-0.092,19.396h0.001v0.012l3.043,0.014l-0.054,11.345c-1.286,0.357-2.233,1.533-2.239,2.934
			c-0.009,1.689,1.355,3.066,3.045,3.074c1.69,0.009,3.067-1.355,3.075-3.045c0.007-1.401-0.93-2.586-2.212-2.955l0.063-13.274
			h-0.04l0.001-0.007l-2.937-0.014l0.032-6.917l7.688,0.036c0.357,1.286,1.533,2.232,2.934,2.239
			c1.69,0.008,3.066-1.355,3.075-3.046c0.008-1.689-1.355-3.066-3.046-3.074c-1.4-0.007-2.585,0.929-2.954,2.212l-7.688-0.037
			l0.045-9.453h-0.028l0.013-0.007l-1.925-2.723c-0.662-1.228-3.081-5.753-7.499-14.419c0,0,10.318-2.023,13.96-10.521
			c3.642-8.496,11.329-6.676,13.96-7.484c4.83-2.393,8.061-8.604,9.183-16.754C616.742,77.228,614.005,77.272,610.457,77.331z
			 M574.871,168.05c-0.004,0.763-0.625,1.378-1.388,1.374c-0.764-0.003-1.379-0.625-1.375-1.388
			c0.003-0.763,0.625-1.379,1.388-1.375S574.874,167.286,574.871,168.05z M582.144,147.295c-0.004,0.763-0.625,1.378-1.388,1.375
			c-0.764-0.004-1.379-0.625-1.375-1.389c0.003-0.763,0.625-1.378,1.388-1.375C581.532,145.91,582.147,146.531,582.144,147.295z
			 M592.328,163.449c-0.004,0.763-0.625,1.379-1.388,1.375c-0.764-0.003-1.379-0.625-1.375-1.388s0.625-1.379,1.388-1.375
			S592.332,162.687,592.328,163.449z M599.7,138.203c0.763,0.003,1.378,0.625,1.375,1.388c-0.004,0.763-0.625,1.379-1.389,1.375
			c-0.763-0.004-1.378-0.625-1.375-1.388C598.315,138.814,598.937,138.199,599.7,138.203z M520.875,23.322l-10.119-3.205
			c-0.729,1.852-2.34,3.207-4.261,3.627l0.093,6.869l11.395-1.822L520.875,23.322z M564.302,60.846
			c0.739,0.23,1.487,0.463,2.229,0.694l0.217,0.063c1.653-1.56,5.441-5.133,9.33-8.801l-0.183-0.126
			c-0.729-0.53-1.224-0.889-1.224-0.889c-0.124,0.115-0.254,0.223-0.387,0.327c-0.155,0.155-0.905,0.58-0.905,0.58
			c-1.051,0.551-2.273,0.797-3.539,0.629c-1.649-0.22-3.048-1.096-3.974-2.329c0,0-3.628,2.35-6.676,4.323l-0.648,0.426
			c2.183,1.986,4.178,3.802,5.535,5.037L564.302,60.846z M565.075,49.567c0,0-4.498,1.691-8.767,3.295l-0.605,0.294
			c0.664,0.604,1.328,1.208,1.981,1.802l0.677-0.428c3.219-2.084,6.925-4.484,6.925-4.484
			C565.208,49.891,565.138,49.73,565.075,49.567z M576.556,47.826c0,0,2.094,0.237,3.913,0.443l0.353,0.034
			c0.82-0.774,1.592-1.479,2.311-2.157l0.343-0.301c0.55-4.049,1.518-11.187,1.518-11.187c-0.879-0.229-1.668-0.649-2.33-1.21
			l-8.382,9.286C575.795,43.916,576.696,45.799,576.556,47.826z M505.539,30.781l-0.093-6.904c-0.331,0.012-0.667,0.003-1.006-0.042
			c-0.345-0.046-0.676-0.126-0.997-0.227l-4.337,8.201L505.539,30.781z M502.466,23.202c-0.173-0.091-0.342-0.189-0.504-0.295
			l-0.514,0.538c-4.212,3.866-7.912,7.263-10.063,9.239l-0.436,0.43c2.859-0.457,6.855-1.096,6.855-1.096L502.466,23.202z
			 M498.489,32.977L493.77,41.9l8.324,5.271c0.925-1.061,2.212-1.776,3.638-1.982l-0.179-13.342L498.489,32.977z M488.037,38.27
			l4.841,3.065l4.31-8.15l-8.759,1.4c0.138,0.649,0.177,1.329,0.084,2.024C488.434,37.198,488.269,37.755,488.037,38.27z
			 M587.328,42.188c0,0,1.692,0.008,4.083,0.008l-0.112-0.223c-1.369-3.184-3.161-7.347-3.161-7.347
			c-0.663,0.19-1.369,0.262-2.092,0.206c0,0-0.779,5.737-1.334,9.828l0.354-0.337C586.457,43.01,587.328,42.188,587.328,42.188z
			 M511.124,18.72c-0.018,0.13-0.045,0.256-0.07,0.382l10.323,3.27l4.976-9.408c-0.813-0.528-1.479-1.245-1.948-2.082l-13.796,4.526
			C511.078,16.406,511.28,17.545,511.124,18.72z M481.828,41.724c-3.258-0.434-5.548-3.426-5.114-6.684
			c0.03-0.223,0.071-0.441,0.124-0.654l-0.648-0.033c-2.831-0.032-4.991-0.055-4.991-0.055c-1.416,1.618-5.462,11.734-3.844,22.254
			c0,0,5.729,0.041,12.069,0.085l0.267-0.033c-0.071-0.52-0.075-1.057-0.003-1.602c0.327-2.456,2.107-4.359,4.36-4.964l-1.21-8.272
			C482.505,41.778,482.168,41.769,481.828,41.724z M491.486,56.572l-0.047,0.15c2.779,0.02,4.644,0.033,4.644,0.033
			s1.876-1.601,4.309-3.677l0.433-0.516l-9.33,2.55C491.547,55.588,491.551,56.076,491.486,56.572z M487.515,39.191
			c-0.849,1.233-2.14,2.111-3.615,2.438l1.203,8.228c0.415-0.034,0.839-0.026,1.268,0.031c0.611,0.081,1.188,0.252,1.72,0.499
			l4.291-8.115L487.515,39.191z M489.001,50.917c1.085,0.762,1.889,1.871,2.275,3.144l9.37-2.561
			c-0.027-0.396-0.017-0.801,0.038-1.209c0.109-0.826,0.386-1.589,0.787-2.262l-8.198-5.191L489.001,50.917z"/>
	</g>
</g>
</svg>
